<?xml version="1.0" encoding="UTF-8" standalone="no"?>
<!-- Generator: Adobe Illustrator 22.1.0, SVG Export Plug-In . SVG Version: 6.00 Build 0)  -->

<svg
   version="1.1"
   id="svg18"
   inkscape:export-filename="闁艰姤甯掔敮绋婄€ｅ徍02.png"
   inkscape:export-xdpi="96"
   inkscape:export-ydpi="96"
   inkscape:version="1.4 (86a8ad7, 2024-10-11)"
   sodipodi:docname="荒原之梦-Lite-LOGO-V1.0-黑色和浅灰色文字-适用于浅色背景.svg"
   x="0px"
   y="0px"
   viewBox="0 0 650.5 217.7"
   style="enable-background:new 0 0 650.5 217.7;"
   xml:space="preserve"
   xmlns:inkscape="http://www.inkscape.org/namespaces/inkscape"
   xmlns:sodipodi="http://sodipodi.sourceforge.net/DTD/sodipodi-0.dtd"
   xmlns="http://www.w3.org/2000/svg"
   xmlns:svg="http://www.w3.org/2000/svg"><defs
   id="defs39" />
<style
   type="text/css"
   id="style2">
	.st0{fill:none;}
	.st1{fill:#45DD1B;}
	.st2{fill:#00C800;}
	.st3{fill:#F77B61;}
	.st4{fill:#90FF90;}
	.st5{enable-background:new    ;}
	.st6{fill:#FFFFFF;}
</style>
<sodipodi:namedview
   bordercolor="#000000"
   borderopacity="0.25"
   id="namedview57"
   inkscape:current-layer="g36"
   inkscape:cx="156.55977"
   inkscape:cy="242.27406"
   inkscape:deskcolor="#d1d1d1"
   inkscape:pagecheckerboard="0"
   inkscape:pageopacity="0.0"
   inkscape:showpageshadow="2"
   inkscape:window-height="974"
   inkscape:window-maximized="1"
   inkscape:window-width="1920"
   inkscape:window-x="-11"
   inkscape:window-y="-11"
   inkscape:zoom="0.57166666"
   pagecolor="#ffffff"
   showgrid="false">
	</sodipodi:namedview>
<desc
   id="desc2">Created with Snap</desc>
<rect
   id="rect6"
   x="-6580.4"
   y="-2363.5"
   class="st0"
   width="13010.8"
   height="4354.1" />
<g
   id="g32">
	<desc
   id="desc8">Created with Snap</desc>
	<g
   id="g26">
		<g
   id="g22">
			<path
   id="path12"
   class="st1"
   d="M105.8,81.2c0.2,0.1,0.3,0.1,0.5,0.2c0.3,0.1,0.6,0.3,0.9,0.4c0.1,0.1,0.3,0.1,0.4,0.2     c0.1,0,0.2,0.1,0.3,0.1c0.7,0.2,1.4-0.1,2-0.4c0.2-0.1,0.3-0.1,0.5-0.2s0.2-0.1,0.5-0.2s0.3-0.1,0.5-0.2c0.8-0.3,1.6-0.7,2.4-1     c2.1-0.9,4.2-1.7,6.3-2.4c0.1-0.1,0.3-0.1,0.5-0.2c5-1.8,10.1-2.9,15.4-3.6c0.1,0,0.2,0,0.3,0c5.2-0.7,10.7-0.8,15.8-0.1     c0.8,0.1,1.5,0.1,2.2,0c1.2,0,2.1,0,3,0.7c1.2,1.6,1.8,3.7,2.4,5.6c0.6,1.6,1.2,3.2,1.9,4.7c0.3,0.8,0.7,1.5,1,2.3     c0.1,0.3,0.3,0.6,0.4,0.9c0.1,0.2,0.1,0.2,0.2,0.5c0.1,0.2,0.1,0.2,0.2,0.5c0.5,1.2,1.1,2.5,1.6,3.7c0.1,0.1,0.1,0.3,0.2,0.5     c1,2.4,2,4.8,3,7.3c0.9,2.1,1.8,4.2,2.7,6.3c1,2.3,1.9,4.5,2.9,6.8c1,2.4,2,4.8,3,7.3c0.1,0.2,0.1,0.3,0.2,0.5     c0.3,0.8,0.7,1.5,1,2.3c0.6,1.4,1.2,2.8,1.8,4.2c0.3,0.8,0.7,1.5,1,2.3c0.1,0.3,0.3,0.6,0.4,0.9c0.1,0.2,0.1,0.2,0.2,0.5     c0.6,1.4,0.6,1.4,0.8,1.8c0.1,0.3,0.3,0.6,0.4,0.9c0.3,0.8,0.7,1.5,1,2.3c0.6,1.4,1.2,2.8,1.8,4.2c0.3,0.8,0.7,1.5,1,2.3     c0.1,0.1,0.1,0.3,0.2,0.5c1,2.4,2,4.8,3,7.3c0.9,2.3,1.9,4.5,2.8,6.7c1,2.3,1.9,4.6,2.9,6.9c0.9,2.1,1.8,4.3,2.7,6.4     c1,2.3,1.9,4.5,2.9,6.8c1,2.4,2,4.8,3,7.3c0.1,0.2,0.1,0.3,0.2,0.5c0.3,0.8,0.7,1.5,1,2.3c0.6,1.4,1.2,2.8,1.8,4.2     c0.3,0.8,0.7,1.5,1,2.3c0.1,0.3,0.3,0.6,0.4,0.9c0.1,0.2,0.1,0.3,0.2,0.5c0.2,0.5,0.4,0.9,0.6,1.4c0,0.1,0.1,0.3,0.2,0.5     c0.1,0.3,0.3,0.6,0.4,0.9c0.3,0.8,0.7,1.5,1,2.3c0.6,1.4,1.2,2.8,1.8,4.2c0.3,0.6,0.5,1.3,0.8,1.9c0.2,0.5,0.4,0.9,0.6,1.4     c0.6,1.4,1.2,2.9,1.8,4.3c0.1,0.2,0.2,0.5,0.3,0.8c0.2,0.5,0.4,1,0.6,1.4c0.1,0.2,0.2,0.4,0.3,0.6c0.1,0.2,0.1,0.4,0.2,0.5     c0.2,0.4,0.2,0.4,0.2,0.8c-19.1,0-38.2,0-57.8,0c-0.4-0.9-0.8-1.7-1.2-2.5c-0.1-0.2-0.1-0.2-0.1-0.3c-0.1-0.3-0.2-0.5-0.3-0.8     c-0.3-0.7-0.6-1.5-0.9-2.2c-0.1-0.2-0.1-0.3-0.2-0.5c-0.9-2.3-1.8-4.6-2.7-6.9c-0.2-0.6-0.5-1.2-0.7-1.8     c-0.1-0.2-0.2-0.5-0.3-0.7c0-0.1-0.1-0.2-0.1-0.4c-0.1-0.2-0.2-0.5-0.3-0.7c-0.9-2.3-1.8-4.6-2.7-6.9c-0.5-1.4-1.1-2.8-1.6-4.1     c-0.3-0.7-0.6-1.5-0.9-2.2c-0.1-0.3-0.3-0.7-0.4-1.1c-0.2-0.5-0.4-1-0.6-1.5c-0.1-0.2-0.1-0.2-0.2-0.5c0-0.1-0.1-0.3-0.1-0.4     c0-0.1-0.1-0.2-0.1-0.3c-0.1-0.3-0.1-0.3-0.1-0.8c-24.5,0-48.9,0-74.1,0c-0.1,0.3-0.1,0.5-0.2,0.8c-0.1,0.2-0.2,0.4-0.2,0.7     c0,0.1-0.1,0.3-0.1,0.4c-0.1,0.1-0.1,0.3-0.2,0.4c0,0.1-0.1,0.3-0.2,0.4c-0.2,0.5-0.4,1-0.6,1.5c-0.1,0.3-0.3,0.7-0.4,1.1     c-0.4,1-0.8,1.9-1.2,2.9c-0.3,0.8-0.6,1.6-1,2.4c-1.1,2.7-2.1,5.4-3.2,8.1c-0.1,0.2-0.2,0.4-0.2,0.6c-1.1,2.7-2.1,5.3-3.2,7.9     c-0.2,0.5-0.4,1.1-0.6,1.6c-0.3,0.8-0.7,1.6-1,2.5c-0.1,0.3-0.2,0.6-0.4,0.9c-0.2,0.4-0.3,0.8-0.5,1.2c0,0.1-0.1,0.2-0.1,0.4     c-0.3,0.8-0.3,0.8-0.5,1c-0.3,0-0.6,0-0.9,0c-0.2,0-0.4,0-0.6,0c-0.2,0-0.5,0-0.7,0s-0.5,0-0.7,0c-0.7,0-1.3,0-2,0s-1.4,0-2.1,0     c-1.2,0-2.5,0-3.7,0c-1.8,0-3.6,0-5.3,0c-2.9,0-5.8,0-8.6,0c-2.8,0-5.6,0-8.4,0c-0.3,0-0.3,0-0.5,0c-0.9,0-1.7,0-2.6,0     c-7.2,0-14.3,0-21.5,0c0.1-0.4,0.3-0.9,0.5-1.3c0-0.1,0.1-0.2,0.1-0.4c0.3-0.9,0.7-1.7,1-2.6c0.1-0.2,0.1-0.2,0.2-0.4     c0.1-0.3,0.2-0.6,0.4-0.8c0.3-0.8,0.7-1.5,1-2.3c0.1-0.2,0.1-0.3,0.2-0.5c0.6-1.4,1.2-2.8,1.8-4.3c0.1-0.2,0.1-0.2,0.1-0.4     c0.2-0.5,0.4-1,0.6-1.5c0.6-1.5,1.3-3.1,1.9-4.6c0.1-0.2,0.1-0.2,0.2-0.4c1-2.5,2.1-4.9,3.1-7.4c1-2.3,1.9-4.5,2.8-6.8     c1.1-2.6,2.2-5.2,3.2-7.7c1-2.3,1.9-4.5,2.8-6.8c1.1-2.6,2.2-5.2,3.2-7.7c1-2.3,1.9-4.5,2.8-6.8c1.1-2.6,2.2-5.2,3.2-7.7     c1-2.3,1.9-4.5,2.8-6.8c1.1-2.6,2.2-5.2,3.2-7.7c1-2.3,1.9-4.5,2.8-6.8c1.1-2.6,2.2-5.2,3.2-7.7c1-2.3,1.9-4.5,2.8-6.8     c1.1-2.6,2.2-5.2,3.2-7.7c1-2.3,1.9-4.5,2.8-6.8c1.4-3.3,2.8-6.7,4.2-10c0.6-1.5,1.3-3,1.9-4.4c0.2-0.5,0.4-0.9,0.6-1.4     c0.1-0.1,0.1-0.3,0.2-0.4c0.1-0.3,0.2-0.6,0.4-0.9c0.3-0.7,0.6-1.4,0.9-2.1c0-0.1,0.1-0.3,0.2-0.4c0.1-0.3,0.2-0.6,0.3-0.8     c0.3-0.9,0.3-0.9,1-1.2c0.2,0,0.3,0,0.5-0.1c0.1,0,0.3-0.1,0.5-0.1c0.1,0,0.3,0,0.5-0.1c0.2,0,0.3-0.1,0.5-0.1c1-0.1,2-0.3,3-0.4     c0.2,0,0.2,0,0.5-0.1C79.4,71.9,93.2,75.6,105.8,81.2z M108.4,88.2c-0.1,0.2-0.1,0.3-0.2,0.5c-1.5,3.8-3.1,7.7-4.7,11.5     c-0.9,2.3-1.9,4.6-2.8,6.9c-1.1,2.7-2.2,5.4-3.3,8.1c-1,2.4-2,4.8-2.9,7.3c-0.7,1.6-1.3,3.2-2,4.8c-2.1,5.1-2.1,5.1-4.1,10.2     c0,0.1-0.1,0.2-0.1,0.4c-0.1,0.3-0.3,0.7-0.4,1s-0.1,0.3-0.2,0.6c-0.2,0.4-0.2,0.4-0.1,0.6c13.9,0,27.8,0,42.2,0     c-0.8-2.2-0.8-2.2-1.7-4.3c0-0.1-0.1-0.3-0.2-0.4c-0.1-0.3-0.3-0.6-0.4-0.9c-0.4-0.8-0.7-1.7-1-2.5c-0.1-0.2-0.1-0.3-0.2-0.5     c-0.8-1.9-1.5-3.8-2.3-5.6c-0.1-0.3-0.3-0.7-0.4-1c-0.2-0.5-0.4-1-0.6-1.5c-0.7-1.7-1.4-3.5-2.1-5.2c0-0.1-0.1-0.3-0.2-0.4     c-0.9-2.2-1.8-4.4-2.7-6.7c-0.9-2.3-1.9-4.6-2.8-6.9c-0.7-1.6-1.3-3.2-2-4.8c0-0.1-0.1-0.3-0.2-0.4c0-0.1-0.1-0.3-0.2-0.4     c-1.4-3.3-2.7-6.7-4.1-10C108.5,88.2,108.4,88.2,108.4,88.2z" />
			<path
   id="path14"
   class="st2"
   d="M152.1,73.7c0.8,0.1,1.4,0.1,2.2,0c1.2,0,2.1,0,3,0.7c1.2,1.6,1.8,3.7,2.4,5.6     c0.6,1.6,1.2,3.2,1.9,4.7c0.3,0.8,0.7,1.5,1,2.3c0.1,0.3,0.3,0.6,0.4,0.9c0.1,0.2,0.1,0.2,0.2,0.5c0.1,0.2,0.1,0.2,0.2,0.5     c0.5,1.2,1,2.5,1.6,3.7c0.1,0.2,0.1,0.2,0.2,0.5c1,2.4,2,4.8,3,7.3c0.9,2.1,1.8,4.2,2.7,6.3c1,2.3,1.9,4.5,2.8,6.8     c1,2.4,2,4.8,3.1,7.3c0.1,0.2,0.1,0.2,0.2,0.5c0.3,0.8,0.7,1.5,1,2.3c0.6,1.4,1.2,2.8,1.8,4.2c0.3,0.8,0.6,1.5,1,2.3     c0.1,0.3,0.3,0.6,0.4,0.9c0.1,0.2,0.1,0.3,0.2,0.5c0.6,1.4,0.6,1.4,0.8,1.8c0.1,0.3,0.3,0.6,0.4,0.9c0.3,0.8,0.7,1.5,1,2.3     c0.6,1.4,1.2,2.8,1.8,4.2c0.3,0.8,0.7,1.5,1,2.3c0.1,0.1,0.1,0.3,0.2,0.5c1,2.4,2,4.8,3,7.3c0.9,2.2,1.9,4.5,2.8,6.7     c1,2.3,1.9,4.6,2.9,6.9c0.9,2.1,1.8,4.3,2.7,6.4c1,2.3,1.9,4.5,2.8,6.8c1,2.4,2,4.8,3.1,7.3c0.1,0.2,0.1,0.3,0.2,0.5     c0.3,0.8,0.7,1.5,1,2.3c0.6,1.4,1.2,2.8,1.8,4.2c0.3,0.8,0.6,1.5,1,2.3c0.1,0.3,0.3,0.6,0.4,0.9c0.1,0.2,0.1,0.3,0.2,0.5     c0.3,0.7,0.3,0.7,0.6,1.4c0.1,0.1,0.1,0.3,0.2,0.5c0.1,0.3,0.3,0.6,0.4,0.9c0.3,0.8,0.6,1.5,1,2.3c0.6,1.4,1.2,2.8,1.8,4.2     c0.3,0.6,0.5,1.3,0.8,1.9c0.2,0.5,0.4,0.9,0.6,1.4c0.6,1.4,1.2,2.9,1.8,4.3c0.1,0.2,0.2,0.5,0.3,0.8c0.2,0.5,0.4,1,0.6,1.4     c0.1,0.2,0.2,0.4,0.3,0.6c0.1,0.2,0.1,0.4,0.2,0.5c0.2,0.4,0.2,0.4,0.2,0.8c-19.1,0-38.2,0-57.8,0c-0.4-0.9-0.8-1.7-1.2-2.5     c0-0.1-0.1-0.2-0.1-0.4c-0.1-0.2-0.2-0.5-0.3-0.8c-0.3-0.7-0.6-1.5-0.9-2.2c-0.1-0.2-0.1-0.3-0.2-0.5c-0.9-2.3-1.8-4.6-2.7-6.9     c-0.2-0.6-0.5-1.2-0.7-1.8c-0.1-0.2-0.2-0.5-0.3-0.7c0-0.1-0.1-0.2-0.1-0.4c-0.1-0.2-0.2-0.5-0.3-0.7c-0.9-2.3-1.8-4.6-2.7-6.9     c-0.1-0.3-0.2-0.5-0.3-0.8c-0.1-0.2-0.1-0.2-0.2-0.4c-0.5-1.2-0.9-2.3-1.4-3.5c-0.1-0.4-0.3-0.7-0.4-1.1     c-0.2-0.5-0.4-1.1-0.6-1.6c-0.2-0.5-0.4-1-0.6-1.5c0-0.1-0.1-0.3-0.2-0.4c0-0.1-0.1-0.3-0.2-0.4c0-0.1-0.1-0.2-0.1-0.3     c-0.1-0.3-0.2-0.5-0.3-0.8c-18.3-0.1-18.3-0.1-37.1-0.2c0-13.8,0-27.5,0-41.7c7,0,14,0,21.2,0c-0.9-2.2-1.9-4.5-2.8-6.8     c-1-2.4-1-2.4-1.4-3.6c-0.3-0.7-0.5-1.3-0.8-2c-0.1-0.3-0.3-0.7-0.4-1c-0.7-1.7-1.4-3.5-2.1-5.2c-0.1-0.3-0.2-0.6-0.4-0.9     c-0.2-0.4-0.4-0.9-0.5-1.3c-0.4-1.1-0.9-2.1-1.3-3.2c-1.2-3-2.5-6-3.7-9c-1-2.5-2-4.9-3-7.4c-0.6-1.5-1.2-3-1.8-4.5     c-0.1-0.3-0.2-0.6-0.4-0.9c-0.2-0.5-0.4-1.1-0.7-1.6c-0.2-0.6-0.5-1.2-0.7-1.8c-0.1-0.3-0.3-0.7-0.4-1c-0.7-1.6-0.8-3.1-0.8-4.8     c0-0.3,0-0.5,0-0.8c0-0.6,0-1.2,0-1.8c0.2-0.1,0.2-0.1,0.5-0.2c0-0.1,0.1-0.2,0.2-0.3c0.3-0.2,0.3-0.2,0.8-0.3     c0.2-0.1,0.3-0.1,0.5-0.2s0.3-0.1,0.5-0.2c0.4-0.1,0.7-0.3,1.1-0.4c0.2-0.1,0.4-0.1,0.5-0.2c0.6-0.2,1.2-0.5,1.7-0.7     c1.9-0.8,3.9-1.6,5.9-2.3c0.2-0.1,0.2-0.1,0.5-0.2c5-1.8,10.1-2.9,15.4-3.6c0.2,0,0.2,0,0.3,0C141.4,73.1,146.9,73,152.1,73.7     L152.1,73.7z" />
			<path
   id="path16"
   class="st3"
   d="M110,0.4c0.3,0.1,0.6,0.2,0.8,0.3c0.3,0.1,0.6,0.2,0.9,0.3c0.2,0,0.3,0.1,0.5,0.2     c0.5,0.2,1,0.4,1.6,0.5c0.2,0,0.4,0.1,0.6,0.2c2.6,0.9,5.3,1.8,7.9,2.7c2.3,0.8,4.6,1.6,7,2.4c2.6,0.9,5.2,1.8,7.8,2.7     c2.3,0.8,4.7,1.6,7,2.4c2.6,0.9,5.3,1.8,7.9,2.7c2.2,0.8,4.5,1.5,6.7,2.3c2.4,0.8,4.8,1.6,7.1,2.5c2.5,0.9,5,1.7,7.4,2.6     c2.6,0.9,5.3,1.8,7.9,2.7c2.2,0.8,4.5,1.5,6.7,2.3c2.6,0.9,5.1,1.7,7.7,2.7c3.1,1.1,6.2,2.1,9.3,3.2c0,0.2,0,0.3,0,0.5     c-0.1,0-0.2,0.1-0.3,0.1c-1,0.4-2.1,0.7-3.1,1.1c-0.5,0.2-1.1,0.4-1.6,0.6c-0.6,0.2-1.2,0.4-1.8,0.6c-0.2,0-0.4,0.1-0.6,0.2     c-1,0.4-2,0.7-3,1.1c-0.4,0.1-0.4,0.1-0.9,0.1c0,17.6,0,35.2,0,53.4c-1.8,0-3.7,0-5.6,0c0-16.9-0.1-33.8-0.2-51.2     c-7.2,2.5-7.2,2.5-14.5,5c-2.1,0.7-4.1,1.4-6.2,2.2c-1.8,0.6-3.7,1.3-5.5,1.9c-0.2,0-0.3,0.1-0.5,0.2c-0.7,0.3-1.5,0.5-2.2,0.8     c-0.3,0.1-0.5,0.2-0.8,0.3c-0.1,0-0.2,0.1-0.3,0.1c-0.8,0.3-0.8,0.3-1.2,0.3c0,0.2,0.1,0.3,0.1,0.5c0.5,1.9,1,3.8,1.5,5.6     c0,0.2,0,0.2,0.1,0.4c0.2,0.8,0.4,1.5,0.6,2.3c0.2,0.8,0.4,1.6,0.6,2.4c0.1,0.6,0.3,1.2,0.4,1.8c0.1,0.3,0.1,0.6,0.2,0.9     c0.1,0.4,0.2,0.8,0.3,1.2c0,0.1,0,0.2,0.1,0.4c0.1,0.6,0.2,1,0,1.6c-0.1,0-0.3,0-0.4-0.1c-15.4-3.1-30.7-1.4-45.8,4.2     c-0.1,0-0.2,0.1-0.4,0.1c-1.1,0.4-2.2,0.8-3.2,1.3c-0.1,0-0.2,0.1-0.4,0.2c-0.2,0.1-0.4,0.2-0.7,0.3c-0.6,0.3-1,0.4-1.7,0.2     c-0.3-0.1-0.7-0.3-1-0.4s-0.3-0.1-0.6-0.2c-0.1,0-0.2-0.1-0.3-0.1c-2.2-0.9-4.4-1.8-6.6-2.5c-0.4-0.1-0.8-0.3-1.2-0.4     c-6.5-2.3-13.5-3.7-20.4-4.2c-0.1,0-0.2,0-0.4,0c-5.1-0.4-10.2-0.1-15.2,0.6c-0.1,0-0.2,0-0.3,0.1c-1.4,0.2-2.9,0.5-4.3,0.8     c-0.5,0.1-0.9,0.1-1.4,0.1c0.3-1.8,0.7-3.5,1.2-5.2c0.1-0.3,0.2-0.7,0.2-1c0.2-0.7,0.4-1.4,0.5-2.1c0.2-0.9,0.5-1.8,0.7-2.6     c0.2-0.7,0.3-1.4,0.5-2c0.1-0.3,0.2-0.7,0.2-1c0.1-0.4,0.2-0.9,0.3-1.4c0-0.1,0.1-0.3,0.1-0.4c0.2-0.9,0.2-0.9,0.4-1.3     c-0.1,0-0.2,0-0.3-0.1c-1.1-0.3-2.2-0.6-3.2-1c-0.2,0-0.3-0.1-0.5-0.2c-0.5-0.2-1.1-0.4-1.6-0.6c-0.4-0.1-0.8-0.3-1.2-0.4     c-0.8-0.3-1.6-0.5-2.4-0.8c-1.6-0.6-3.3-1.1-4.9-1.7c-0.9-0.3-1.8-0.6-2.7-0.9c-0.4-0.1-0.7-0.2-1.1-0.4     c-0.7-0.2-1.4-0.5-2.1-0.7c-0.3-0.1-0.3-0.1-0.5-0.2c-0.3-0.1-0.7-0.2-1.1-0.4c-0.9-0.3-1.8-0.6-2.7-0.9     c-1.6-0.5-3.2-1.1-4.8-1.6c-0.9-0.3-1.8-0.6-2.7-0.9c-0.2-0.1-0.3-0.1-0.5-0.2c-2.1-0.7-4.2-1.4-6.2-2.2     c-0.3-0.1-0.3-0.1-0.6-0.2c-1-0.3-2-0.7-2.9-1c-2.1-0.7-4.2-1.5-6.4-2.2c0-0.2,0-0.3,0-0.5c0.1,0,0.2-0.1,0.3-0.1     c4.3-1.5,8.7-2.9,13-4.4c2.3-0.8,4.6-1.6,6.9-2.4c2.5-0.8,4.9-1.7,7.4-2.6s4.9-1.7,7.4-2.6c2.6-0.9,5.3-1.8,7.9-2.7     c2.4-0.8,4.8-1.6,7.2-2.5c2.2-0.8,4.4-1.5,6.7-2.3c2.6-0.9,5.3-1.8,7.9-2.7c2.3-0.8,4.6-1.6,6.9-2.4c2.5-0.9,4.9-1.7,7.4-2.6     c2.4-0.8,4.7-1.6,7.1-2.4c0.4-0.2,0.9-0.3,1.3-0.5c1.3-0.5,2.6-0.9,3.9-1.4c0.6-0.2,1.2-0.4,1.7-0.6c0.3-0.1,0.5-0.2,0.8-0.3     c0.4-0.1,0.7-0.3,1.1-0.4c0.1,0,0.2-0.1,0.3-0.1C108.4-0.2,109.1,0,110,0.4z" />
		</g>
	</g>
</g>
<g
   id="icon_name_and_slogan_gap">
</g>
<g
   id="g37"
   style="fill:#000000">
	<g
   id="nameDefaultGroup"
   style="fill:#000000">
		<path
   id="namepathdata"
   class="st4"
   d="M283.3,54.5c2.8,0,5.4,0.8,7.6,2.5s3.7,3.8,4.5,6.4l0,0h30.8c1.1,0,1.9,0.4,2.4,1.1    c0.6,0.8,0.9,1.6,0.9,2.5c0,1-0.3,1.8-0.9,2.5c-0.5,0.7-1.3,1.1-2.4,1.1l0,0h-61.9v13.9h58.1c1.1,0,1.9,0.4,2.4,1.1    c0.6,0.7,0.9,1.6,0.9,2.5s-0.3,1.7-0.9,2.5c-0.5,0.7-1.3,1.1-2.4,1.1l0,0h-79.2v-21h-4c-1.1,0-1.9-0.4-2.4-1.1    c-0.6-0.7-0.9-1.6-0.9-2.5s0.3-1.7,0.9-2.5c0.5-0.7,1.3-1.1,2.4-1.1l0,0h31.7c0.8-2.6,2.3-4.7,4.5-6.4S280.4,54.5,283.3,54.5    L283.3,54.5 M249.7,49.5h-12.1c-1.1,0-1.9-0.4-2.4-1.1c-0.5-0.8-0.8-1.6-0.8-2.5s0.3-1.7,0.8-2.5c0.5-0.7,1.3-1.1,2.4-1.1l0,0    h12.1V42c0-4.4,2.2-6.5,6.7-6.5l0,0h8.8c4.4,0,6.7,2.2,6.7,6.5l0,0v0.3h22.3V42c0-4.4,2.2-6.5,6.5-6.5l0,0h8.8    c4.5,0,6.8,2.2,6.8,6.5l0,0v0.3h12.4c1.1,0,1.9,0.4,2.5,1.1c0.5,0.8,0.8,1.6,0.8,2.5s-0.3,1.7-0.8,2.5c-0.6,0.7-1.5,1.1-2.5,1.1    l0,0h-12.4V51c0,1.9-0.7,3.5-2,4.8s-2.9,2-4.8,2l0,0h-8.8c-2.2,0-3.9-0.6-4.9-1.7c-1.1-1.2-1.6-2.9-1.6-5.1l0,0v-1.5h-22.3V51    c0,1.9-0.6,3.5-1.9,4.8s-2.9,2-4.8,2l0,0h-8.8c-2.3,0-4-0.6-5.1-1.7c-1.1-1.2-1.6-2.9-1.6-5.1l0,0L249.7,49.5 M300.7,133.2V100    c0-1.4,0.4-2.5,1.1-3.2c0.6-0.8,1.6-1.2,3.1-1.2l0,0h12.7c1.2,0,2,0.4,2.7,1.2c0.6,0.9,0.9,2,0.9,3.2l0,0v28.3h2v-3.7    c0-2.5,0.2-4.4,0.7-5.7c0.4-1.3,1.3-2,2.5-2l0,0h2.3c1.6,0,2.4,0.9,2.4,2.8l0,0V130c0,1-0.2,1.8-0.7,2.4c-0.5,0.6-1.2,0.9-2.1,0.9    l0,0L300.7,133.2 M244.4,98.3c0.1-1,0.4-1.9,0.9-2.7c0.5-0.7,1.6-1.1,3.1-1.1l0,0h12.8c1.4,0,2.4,0.2,2.8,0.7s0.6,1.5,0.5,3.1l0,0    c-0.1,3.3-0.2,6.3-0.4,9.1c-0.3,2.8-0.5,5.4-0.8,7.9c-0.4,2.6-0.8,5.1-1.2,7.5c-0.4,2.3-0.9,4.8-1.5,7.3l0,0    c-0.3,1.2-0.8,2-1.6,2.4c-0.9,0.4-2.2,0.7-3.9,0.7l0,0h-12.7c-1.7,0-2.7-0.3-2.9-0.8c-0.4-0.4-0.4-1.3,0-2.7l0,0    c0.9-3.7,1.6-6.8,2.1-9.3c0.6-2.5,1.1-4.8,1.5-6.8c0.4-2.1,0.6-4.4,0.8-6.7S244.3,101.7,244.4,98.3L244.4,98.3 M273.6,99.6    c0-1.6,0.4-2.7,1.2-3.3c0.8-0.7,2-1.1,3.7-1.1l0,0h9.1c1.8,0,3.1,0.3,4,0.9s1.3,1.8,1.3,3.5l0,0v28.1c0,1.4-0.5,2.6-1.6,3.6    c-1.1,1.1-2.3,1.6-3.7,1.6l0,0h-9.1c-3.3,0-4.9-1.7-4.9-5.2l0,0V99.6 M368.4,68.8c0-2.1,0.4-4.2,1.1-6.3c0.6-2,1.6-3.9,2.9-5.6    c1.4-1.6,3.1-2.9,4.9-3.9c1.9-1.1,4-1.6,6.5-1.6l0,0h6.7c0.9-2.2,1.6-4.6,2.3-7.1l0,0h-26.9c0,13-0.2,26.5-0.7,40.7    c-0.4,14-1.6,29-3.3,44.8l0,0c-0.1,1.3-0.6,2.2-1.5,2.7c-0.9,0.4-2.2,0.5-3.9,0.5l0,0H343c-1.8,0-2.8-0.2-3.1-0.7    c-0.3-0.5-0.3-1.6-0.1-3.1l0,0c1-8.2,1.7-16.2,2.3-24c0.6-7.8,1.1-15.2,1.3-22.1c0.4-6.9,0.6-13.2,0.7-18.7    c0.1-5.5,0.1-10,0.1-13.3l0,0c0-2.5,0.1-4.6,0.4-6.4c0.3-1.8,0.8-3.2,1.6-4.4c0.7-1.2,1.8-2,3.3-2.5s3.5-0.8,6-0.8l0,0h78    c1.2,0,2,0.4,2.5,1.2c0.6,0.7,0.9,1.6,0.9,2.5s-0.3,1.7-0.8,2.4c-0.6,0.8-1.5,1.2-2.7,1.2l0,0h-20.8c-0.4,1.2-0.7,2.4-1.1,3.6    c-0.3,1.2-0.6,2.4-0.9,3.5l0,0h16.8c1.6,0,3,0.7,4.3,2c1.2,1.2,1.7,2.8,1.7,4.7l0,0v32.7c0,1.9-0.6,3.4-1.7,4.7    c-1.2,1.2-2.7,1.9-4.3,1.9l0,0h-16.3v25.9c0,3.3-0.7,5.7-2,7.3c-1.4,1.7-3.9,2.5-7.5,2.5l0,0h-13.3c-0.8,0-1.4-0.1-1.9-0.3    s-0.9-0.5-1.2-1.1c-0.2-0.5-0.3-1.3-0.4-2.3s-0.1-2.3-0.1-4l0,0h6.8V97.3h-23.3V68.8 M428.8,101.1c1.2,0,2,0.4,2.4,1.1    s0.7,1.6,0.9,2.5l0,0c0.4,2.2,0.9,4.4,1.3,6.5c0.5,2,1,4,1.5,6s1.1,4,1.6,6c0.6,2,1.3,4,2,6.3l0,0c0.4,1.2,0.5,2.1,0.3,2.5    c-0.4,0.5-1.2,0.8-2.7,0.8l0,0h-11.7c-1.4,0-2.4-0.2-3.1-0.7s-1.1-1.2-1.5-2.3l0,0c-1.2-3.5-2.4-7.3-3.3-11.6    c-1-4.4-1.8-8.8-2.4-13.5l0,0c-0.2-1.5,0-2.5,0.4-3.1c0.4-0.4,1.3-0.7,2.5-0.7l0,0h11.8 M369.9,104.7c0.2-1,0.4-1.8,0.8-2.5    s1.3-1.1,2.5-1.1l0,0h11.7c1.2,0,2.1,0.2,2.5,0.7s0.6,1.6,0.4,3.1l0,0c-0.7,4.6-1.5,9.1-2.4,13.5c-1,4.3-2.1,8.1-3.3,11.6l0,0    c-0.4,1.1-0.8,1.8-1.5,2.3c-0.6,0.4-1.6,0.7-3.1,0.7l0,0h-11.7c-1.4,0-2.3-0.3-2.7-0.8c-0.3-0.4-0.2-1.3,0.1-2.5l0,0    c1.8-4.6,3.1-8.8,4-12.5C368.3,113.1,369.2,109,369.9,104.7L369.9,104.7 M387.3,71.7h27.9v-9.3c0-1.2-0.4-2.1-1.1-2.9    c-0.8-0.7-1.7-1.1-2.7-1.1l0,0h-14.7c-1.5,0-2.9,0.3-4.1,0.8c-1.2,0.6-2.1,1.4-2.9,2.4c-0.8,1.1-1.4,2.2-1.9,3.5    c-0.4,1.2-0.5,2.5-0.5,3.9l0,0L387.3,71.7 M411.5,90.9c1,0,1.9-0.4,2.7-1.1c0.7-0.8,1.1-1.8,1.1-2.9l0,0v-8h-27.9v12H411.5     M455.6,133.1c-1.4,0-2.5-0.2-3.3-0.5s-1.3-0.8-1.6-1.2c-0.3-0.4-0.3-0.9,0-1.5c0.2-0.6,0.6-1.2,1.2-1.6l0,0    c6.9-5.7,13.4-11.2,19.3-16.5c6-5.3,11.6-10.7,16.8-16c5.3-5.3,10.4-10.8,15.2-16.3c4.9-5.5,9.7-11.3,14.4-17.3l0,0h-60.7    c-1.2,0-2.1-0.4-2.7-1.3c-0.6-0.8-0.9-1.7-0.9-2.7c0-1.1,0.3-2,0.9-2.8c0.5-0.8,1.4-1.2,2.7-1.2l0,0h74.7c2.1,0,4,0.4,5.6,1.3    c1.6,0.9,2.8,2.1,3.5,3.6c0.8,1.5,1.1,3.2,0.8,5.1c-0.4,1.9-1.3,3.8-2.8,5.7l0,0c-7.8,9.5-15.5,18.3-23.1,26.4    c-7.5,8.2-14.8,15.8-22.1,22.9l0,0c1.2,1.7,2.7,2.9,4.3,3.7c1.5,0.9,3.2,1.3,5.2,1.3l0,0h43.3c0,3-0.4,5.2-1.2,6.5s-2.4,2-4.8,2    l0,0h-44.4c-2.6,0-4.7-0.4-6.4-1.3s-3.2-2.3-4.5-4.1l0,0l-1.9,1.9c-0.9,0.8-1.6,1.5-2.3,2c-0.7,0.5-1.4,0.9-2,1.1    c-0.7,0.3-1.4,0.4-2.1,0.5c-0.8,0.2-1.7,0.3-2.8,0.3l0,0H455.6 M503.5,35.5c1.5,0,2.5,0.3,2.9,0.9c0.4,0.7,0.8,1.5,0.9,2.4l0,0    l2.1,8.4c0.4,1.2,0.2,2.1-0.5,2.5s-2,0.7-3.7,0.7l0,0h-16.5c-1.8-0.1-3.1-0.4-3.9-0.8c-0.8-0.4-1.3-1-1.6-2l0,0l-2-8.8    c-0.4-1.4-0.2-2.4,0.4-2.8c0.5-0.4,1.5-0.5,2.9-0.5l0,0L503.5,35.5 M598.9,105.1c1.5,0,2.5,0.2,3.1,0.7c0.6,0.4,1.2,1.1,1.9,1.9    l0,0l6.3,17.6h4.3l11.2-22.5c1.1-1.8,1.2-3.5,0.4-5.1s-2.4-2.4-4.9-2.4l0,0h-33.5l-5.3,9.6c-0.4,0.7-1,1.2-1.7,1.6    c-0.8,0.3-2,0.4-3.7,0.4l0,0h-13.6c-1.8,0-2.8-0.2-3.2-0.5c-0.4-0.4-0.3-1,0.3-1.9l0,0c1.9-3.2,3.9-6.3,6-9.2c2.1-3,3.7-6,4.8-9.1    l0,0c0.2-0.7,0.5-1.3,0.9-1.7c0.4-0.5,1.4-0.8,2.9-0.8l0,0H589c1.3,0,2.3,0.2,2.9,0.5c0.6,0.4,0.8,1,0.4,2l0,0    c-0.2,0.4-0.4,0.7-0.5,0.9c-0.1,0.3-0.2,0.6-0.4,0.9l0,0H642c2,0,3.6,0.4,4.8,1.1s2.2,1.6,2.8,2.8c0.6,1.2,0.9,2.4,0.9,3.7    c-0.1,1.4-0.5,2.8-1.2,4.1l0,0l-18.9,33.2h-62.5c-0.9,0-1.6-0.1-2-0.3c-0.4-0.1-0.8-0.4-1.1-0.9s-0.4-1.3-0.4-2.4    c-0.1-1.1-0.1-2.4-0.1-4.1l0,0H588l-4.7-16.7c-0.7-1.2-0.8-2.1-0.3-2.7c0.6-0.5,1.6-0.8,3.1-0.8l0,0L598.9,105.1 M597.9,41.1    c1.1,0,1.9,0.4,2.4,1.2c0.6,0.8,0.9,1.6,0.9,2.5s-0.3,1.7-0.9,2.5c-0.5,0.8-1.3,1.2-2.4,1.2l0,0h-10.5v27.2c0,1.5-0.5,2.8-1.6,3.7    c-1.1,1.1-2.3,1.6-3.7,1.6l0,0H575c-3.5,0-5.2-1.8-5.2-5.3l0,0V48.5h-11.2c-1.1,0-1.9-0.4-2.4-1.2s-0.8-1.6-0.8-2.5    s0.3-1.7,0.8-2.5s1.3-1.2,2.4-1.2l0,0h11.2c0-3.5,1.7-5.2,5.2-5.2l0,0h7.1c3.5,0,5.2,1.7,5.3,5.2l0,0H597.9 M645.1,41.1    c1.1,0,1.9,0.4,2.5,1.2c0.5,0.8,0.8,1.6,0.8,2.5s-0.3,1.7-0.8,2.4c-0.6,0.8-1.5,1.2-2.5,1.2l0,0h-10.3v27.3c0,1.5-0.5,2.8-1.6,3.7    c-1.1,1.1-2.3,1.6-3.7,1.6l0,0h-7.2c-3.5,0-5.2-1.8-5.2-5.3l0,0V48.4h-11.2c-1.1,0-1.9-0.4-2.5-1.2c-0.5-0.7-0.8-1.5-0.8-2.4    s0.3-1.7,0.8-2.5c0.6-0.8,1.5-1.2,2.5-1.2l0,0h11.2c0-3.5,1.7-5.2,5.2-5.2l0,0h7.2c3.4,0,5.2,1.7,5.3,5.2l0,0H645.1 M557.7,53.3    c0.2-0.5,0.4-1,0.7-1.3c0.3-0.4,0.8-0.5,1.6-0.5l0,0h6.9c0.6,0,1,0.2,1.2,0.5c0.1,0.4,0.1,1.1,0.1,2l0,0l-3.3,24.7    c-0.1,0.6-0.4,1-0.8,1.2c-0.4,0.3-1,0.4-1.9,0.4l0,0h-6.4c-0.8,0-1.3-0.1-1.6-0.4c-0.3-0.2-0.4-0.7-0.3-1.5l0,0L557.7,53.3     M644.3,51.3c0.7,0,1.2,0.2,1.5,0.5c0.3,0.4,0.5,0.9,0.7,1.3l0,0l2.9,24.7c0,0.8-0.1,1.3-0.4,1.5c-0.2,0.3-0.7,0.4-1.6,0.4l0,0    h-6.3c-0.9,0-1.5-0.1-1.9-0.4c-0.4-0.2-0.7-0.6-0.8-1.2l0,0l-2.5-24.3c0-0.9,0-1.5,0.1-1.9c0.2-0.4,0.6-0.7,1.3-0.7l0,0    L644.3,51.3 M605.2,53.6c0.2-0.5,0.4-1,0.7-1.3c0.3-0.4,0.8-0.7,1.6-0.7l0,0h6.9c0.6,0,1,0.2,1.2,0.7c0.1,0.4,0.1,1.1,0.1,1.9l0,0    l-2.8,23.1c-0.1,0.6-0.4,1.1-0.8,1.3c-0.4,0.2-1,0.3-1.9,0.3l0,0h-6.4c-0.8,0-1.3-0.1-1.6-0.3c-0.3-0.3-0.4-0.8-0.3-1.5l0,0    L605.2,53.6 M597.1,51.3c0.7,0,1.2,0.2,1.5,0.5c0.4,0.4,0.6,0.9,0.7,1.3l0,0l1.5,23.6c0,0.8-0.1,1.3-0.3,1.5    c-0.3,0.3-0.8,0.4-1.7,0.4l0,0h-6.3c-0.9,0-1.5-0.1-1.9-0.4c-0.4-0.2-0.6-0.6-0.8-1.2l0,0l-0.9-23.2c-0.1-0.9,0-1.5,0.1-1.9    s0.5-0.7,1.2-0.7l0,0L597.1,51.3z"
   style="fill:#000000" />
	</g>
</g>
<g
   id="g44">
</g>
<rect
   id="rect4169"
   y="-1"
   class="st0"
   width="650.5"
   height="217.7" />
<g
   class="st5"
   id="g36"
   style="fill:#333333">
	
	
	
	
	
	
	
	
<path
   style="font-size:56px;font-family:'Source Han Sans SC VF';-inkscape-font-specification:'Source Han Sans SC VF, @wght=900';font-variation-settings:'wght' 900;text-align:center;text-anchor:middle;fill:#808080;stroke:#000000;stroke-width:0.138;stroke-linecap:round;stroke-linejoin:round;paint-order:markers stroke fill"
   d="m 283.99806,200.95655 v -41.72 h 10.024 v 33.32 h 16.24 v 8.4 z m 32.70398,0 v -31.864 h 9.968 v 31.864 z m 4.984,-36.288 q -2.52,0 -4.032,-1.4 -1.512,-1.4 -1.512,-3.752 0,-2.296 1.512,-3.696 1.512,-1.4 4.032,-1.4 2.464,0 3.976,1.4 1.568,1.4 1.568,3.696 0,2.352 -1.568,3.752 -1.512,1.4 -3.976,1.4 z m 25.53595,37.072 q -3.976,0 -6.496,-1.568 -2.464,-1.624 -3.64,-4.424 -1.12,-2.856 -1.12,-6.608 v -12.264 h -4.312 v -7.392 l 4.928,-0.392 1.12,-8.456 h 8.232 v 8.456 h 7.504 v 7.784 h -7.504 v 12.152 q 0,2.632 1.12,3.808 1.176,1.12 2.912,1.12 0.784,0 1.568,-0.168 0.784,-0.224 1.344,-0.448 l 1.568,7.224 q -1.232,0.392 -3.024,0.784 -1.736,0.392 -4.2,0.392 z m 25.20002,0 q -4.592,0 -8.288,-1.96 -3.64,-2.016 -5.824,-5.768 -2.128,-3.752 -2.128,-9.016 0,-3.864 1.232,-6.944 1.288,-3.08 3.416,-5.264 2.184,-2.184 4.872,-3.304 2.744,-1.176 5.6,-1.176 4.592,0 7.616,2.016 3.024,2.016 4.536,5.488 1.512,3.472 1.512,7.84 0,1.344 -0.168,2.52 -0.112,1.176 -0.28,1.792 h -18.704 q 0.448,2.184 1.568,3.528 1.12,1.344 2.744,2.016 1.624,0.616 3.64,0.616 1.736,0 3.36,-0.504 1.624,-0.504 3.36,-1.512 l 3.304,5.992 q -2.464,1.736 -5.544,2.688 -3.024,0.952 -5.824,0.952 z m -6.776,-20.328 h 10.864 q 0,-2.352 -1.176,-3.92 -1.12,-1.568 -3.864,-1.568 -1.344,0 -2.576,0.616 -1.176,0.56 -2.072,1.792 -0.84,1.176 -1.176,3.08 z m 39.31205,19.544 v -41.72 h 26.432 v 8.344 h -16.408 v 7.728 h 13.944 v 8.4 h -13.944 v 8.848 h 17.024 v 8.4 z m 44.856,0.784 q -3.976,0 -6.944,-2.016 -2.912,-2.016 -4.536,-5.768 -1.568,-3.752 -1.568,-8.96 0,-5.208 1.904,-8.904 1.904,-3.752 4.928,-5.768 3.024,-2.016 6.328,-2.016 2.632,0 4.368,0.896 1.736,0.896 3.304,2.408 l -0.336,-4.76 v -10.64 h 9.968 v 44.744 h -8.12 l -0.728,-3.08 h -0.224 q -1.68,1.68 -3.864,2.8 -2.184,1.064 -4.48,1.064 z m 2.632,-8.176 q 1.456,0 2.576,-0.56 1.176,-0.56 2.24,-2.128 v -12.544 q -1.12,-1.064 -2.408,-1.456 -1.288,-0.448 -2.576,-0.448 -1.344,0 -2.576,0.896 -1.176,0.896 -1.96,2.744 -0.728,1.848 -0.728,4.816 0,3.024 0.616,4.984 0.672,1.904 1.904,2.8 1.232,0.896 2.912,0.896 z m 22.79205,7.392 v -31.864 h 9.968 v 31.864 z m 4.984,-36.288 q -2.52,0 -4.032,-1.4 -1.512,-1.4 -1.512,-3.752 0,-2.296 1.512,-3.696 1.512,-1.4 4.032,-1.4 2.464,0 3.976,1.4 1.568,1.4 1.568,3.696 0,2.352 -1.568,3.752 -1.512,1.4 -3.976,1.4 z m 25.53595,37.072 q -3.976,0 -6.496,-1.568 -2.464,-1.624 -3.64,-4.424 -1.12,-2.856 -1.12,-6.608 v -12.264 h -4.312 v -7.392 l 4.928,-0.392 1.12,-8.456 h 8.232 v 8.456 h 7.504 v 7.784 h -7.504 v 12.152 q 0,2.632 1.12,3.808 1.176,1.12 2.912,1.12 0.784,0 1.568,-0.168 0.784,-0.224 1.344,-0.448 l 1.568,7.224 q -1.232,0.392 -3.024,0.784 -1.736,0.392 -4.2,0.392 z m 12.37599,-0.784 v -31.864 h 9.968 v 31.864 z m 4.984,-36.288 q -2.52,0 -4.032,-1.4 -1.512,-1.4 -1.512,-3.752 0,-2.296 1.512,-3.696 1.512,-1.4 4.032,-1.4 2.464,0 3.976,1.4 1.568,1.4 1.568,3.696 0,2.352 -1.568,3.752 -1.512,1.4 -3.976,1.4 z m 26.82395,37.072 q -4.032,0 -7.616,-1.96 -3.584,-2.016 -5.824,-5.768 -2.184,-3.752 -2.184,-9.016 0,-5.264 2.184,-8.96 2.24,-3.752 5.824,-5.712 3.584,-2.016 7.616,-2.016 3.024,0 5.824,1.12 2.8,1.12 4.984,3.304 2.184,2.128 3.472,5.208 1.288,3.08 1.288,7.056 0,5.264 -2.24,9.016 -2.184,3.752 -5.768,5.768 -3.528,1.96 -7.56,1.96 z m 0,-8.064 q 1.848,0 3.024,-1.064 1.232,-1.064 1.792,-3.024 0.56,-1.96 0.56,-4.592 0,-2.632 -0.56,-4.536 -0.56,-1.96 -1.792,-3.024 -1.176,-1.064 -3.024,-1.064 -1.848,0 -3.08,1.064 -1.176,1.064 -1.792,3.024 -0.56,1.904 -0.56,4.536 0,2.632 0.56,4.592 0.616,1.96 1.792,3.024 1.232,1.064 3.08,1.064 z m 21.83994,7.28 v -31.864 h 8.12 l 0.728,3.976 h 0.168 q 1.96,-1.96 4.424,-3.36 2.52,-1.4 5.768,-1.4 5.208,0 7.56,3.472 2.352,3.472 2.352,9.464 v 19.712 h -9.968 v -18.48 q 0,-3.304 -0.896,-4.48 -0.896,-1.176 -2.8,-1.176 -1.68,0 -2.856,0.728 -1.176,0.728 -2.632,2.128 v 21.28 z"
   id="text1"
   aria-label="Lite Edition" /></g>
</svg>
