<?xml version="1.0" encoding="UTF-8" standalone="no"?>
<!-- Generator: Adobe Illustrator 22.1.0, SVG Export Plug-In . SVG Version: 6.00 Build 0)  -->

<svg
   version="1.1"
   id="svg18"
   inkscape:export-filename="闁艰姤甯掔敮绋婄€ｅ徍02.png"
   inkscape:export-xdpi="96"
   inkscape:export-ydpi="96"
   inkscape:version="1.4 (86a8ad7, 2024-10-11)"
   sodipodi:docname="logo.svg"
   x="0px"
   y="0px"
   viewBox="0 0 650.5 217.7"
   style="enable-background:new 0 0 650.5 217.7;"
   xml:space="preserve"
   xmlns:inkscape="http://www.inkscape.org/namespaces/inkscape"
   xmlns:sodipodi="http://sodipodi.sourceforge.net/DTD/sodipodi-0.dtd"
   xmlns:xlink="http://www.w3.org/1999/xlink"
   xmlns="http://www.w3.org/2000/svg"
   xmlns:svg="http://www.w3.org/2000/svg"><defs
   id="defs39"><linearGradient
     id="linearGradient5"
     inkscape:collect="always"><stop
       style="stop-color:#000000;stop-opacity:1;"
       offset="0"
       id="stop6" /><stop
       style="stop-color:#000000;stop-opacity:0;"
       offset="1"
       id="stop7" /></linearGradient><linearGradient
     inkscape:collect="always"
     xlink:href="#linearGradient5"
     id="linearGradient7"
     x1="283.92906"
     y1="178.08055"
     x2="600.97094"
     y2="178.08055"
     gradientUnits="userSpaceOnUse" /></defs>
<style
   type="text/css"
   id="style2">
	.st0{fill:none;}
	.st1{fill:#45DD1B;}
	.st2{fill:#00C800;}
	.st3{fill:#F77B61;}
	.st4{fill:#90FF90;}
	.st5{enable-background:new    ;}
	.st6{fill:#FFFFFF;}
</style>
<sodipodi:namedview
   bordercolor="#ffffff"
   borderopacity="0"
   id="namedview57"
   inkscape:current-layer="svg18"
   inkscape:cx="346.95648"
   inkscape:cy="95.552186"
   inkscape:deskcolor="#d1d1d1"
   inkscape:pagecheckerboard="0"
   inkscape:pageopacity="0.0"
   inkscape:showpageshadow="2"
   inkscape:window-height="974"
   inkscape:window-maximized="1"
   inkscape:window-width="1920"
   inkscape:window-x="-11"
   inkscape:window-y="-11"
   inkscape:zoom="1.6169175"
   pagecolor="#ffffff"
   showgrid="false">
	</sodipodi:namedview>
<desc
   id="desc2">Created with Snap</desc>
<rect
   id="rect6"
   x="-6580.4"
   y="-2363.5"
   class="st0"
   width="13010.8"
   height="4354.1" />
<g
   id="g32"
   style="fill:#2e8555;stroke:none;stroke-opacity:1;stroke-width:0;stroke-dasharray:none;fill-opacity:1">
	<desc
   id="desc8">Created with Snap</desc>
	<g
   id="g26"
   style="fill:#2e8555;stroke:none;stroke-opacity:1;stroke-width:0;stroke-dasharray:none;fill-opacity:1">
		<g
   id="g22"
   style="fill:#2e8555;stroke:none;stroke-opacity:1;stroke-width:0;stroke-dasharray:none;fill-opacity:1">
			<path
   id="path12"
   class="st1"
   d="M105.8,81.2c0.2,0.1,0.3,0.1,0.5,0.2c0.3,0.1,0.6,0.3,0.9,0.4c0.1,0.1,0.3,0.1,0.4,0.2     c0.1,0,0.2,0.1,0.3,0.1c0.7,0.2,1.4-0.1,2-0.4c0.2-0.1,0.3-0.1,0.5-0.2s0.2-0.1,0.5-0.2s0.3-0.1,0.5-0.2c0.8-0.3,1.6-0.7,2.4-1     c2.1-0.9,4.2-1.7,6.3-2.4c0.1-0.1,0.3-0.1,0.5-0.2c5-1.8,10.1-2.9,15.4-3.6c0.1,0,0.2,0,0.3,0c5.2-0.7,10.7-0.8,15.8-0.1     c0.8,0.1,1.5,0.1,2.2,0c1.2,0,2.1,0,3,0.7c1.2,1.6,1.8,3.7,2.4,5.6c0.6,1.6,1.2,3.2,1.9,4.7c0.3,0.8,0.7,1.5,1,2.3     c0.1,0.3,0.3,0.6,0.4,0.9c0.1,0.2,0.1,0.2,0.2,0.5c0.1,0.2,0.1,0.2,0.2,0.5c0.5,1.2,1.1,2.5,1.6,3.7c0.1,0.1,0.1,0.3,0.2,0.5     c1,2.4,2,4.8,3,7.3c0.9,2.1,1.8,4.2,2.7,6.3c1,2.3,1.9,4.5,2.9,6.8c1,2.4,2,4.8,3,7.3c0.1,0.2,0.1,0.3,0.2,0.5     c0.3,0.8,0.7,1.5,1,2.3c0.6,1.4,1.2,2.8,1.8,4.2c0.3,0.8,0.7,1.5,1,2.3c0.1,0.3,0.3,0.6,0.4,0.9c0.1,0.2,0.1,0.2,0.2,0.5     c0.6,1.4,0.6,1.4,0.8,1.8c0.1,0.3,0.3,0.6,0.4,0.9c0.3,0.8,0.7,1.5,1,2.3c0.6,1.4,1.2,2.8,1.8,4.2c0.3,0.8,0.7,1.5,1,2.3     c0.1,0.1,0.1,0.3,0.2,0.5c1,2.4,2,4.8,3,7.3c0.9,2.3,1.9,4.5,2.8,6.7c1,2.3,1.9,4.6,2.9,6.9c0.9,2.1,1.8,4.3,2.7,6.4     c1,2.3,1.9,4.5,2.9,6.8c1,2.4,2,4.8,3,7.3c0.1,0.2,0.1,0.3,0.2,0.5c0.3,0.8,0.7,1.5,1,2.3c0.6,1.4,1.2,2.8,1.8,4.2     c0.3,0.8,0.7,1.5,1,2.3c0.1,0.3,0.3,0.6,0.4,0.9c0.1,0.2,0.1,0.3,0.2,0.5c0.2,0.5,0.4,0.9,0.6,1.4c0,0.1,0.1,0.3,0.2,0.5     c0.1,0.3,0.3,0.6,0.4,0.9c0.3,0.8,0.7,1.5,1,2.3c0.6,1.4,1.2,2.8,1.8,4.2c0.3,0.6,0.5,1.3,0.8,1.9c0.2,0.5,0.4,0.9,0.6,1.4     c0.6,1.4,1.2,2.9,1.8,4.3c0.1,0.2,0.2,0.5,0.3,0.8c0.2,0.5,0.4,1,0.6,1.4c0.1,0.2,0.2,0.4,0.3,0.6c0.1,0.2,0.1,0.4,0.2,0.5     c0.2,0.4,0.2,0.4,0.2,0.8c-19.1,0-38.2,0-57.8,0c-0.4-0.9-0.8-1.7-1.2-2.5c-0.1-0.2-0.1-0.2-0.1-0.3c-0.1-0.3-0.2-0.5-0.3-0.8     c-0.3-0.7-0.6-1.5-0.9-2.2c-0.1-0.2-0.1-0.3-0.2-0.5c-0.9-2.3-1.8-4.6-2.7-6.9c-0.2-0.6-0.5-1.2-0.7-1.8     c-0.1-0.2-0.2-0.5-0.3-0.7c0-0.1-0.1-0.2-0.1-0.4c-0.1-0.2-0.2-0.5-0.3-0.7c-0.9-2.3-1.8-4.6-2.7-6.9c-0.5-1.4-1.1-2.8-1.6-4.1     c-0.3-0.7-0.6-1.5-0.9-2.2c-0.1-0.3-0.3-0.7-0.4-1.1c-0.2-0.5-0.4-1-0.6-1.5c-0.1-0.2-0.1-0.2-0.2-0.5c0-0.1-0.1-0.3-0.1-0.4     c0-0.1-0.1-0.2-0.1-0.3c-0.1-0.3-0.1-0.3-0.1-0.8c-24.5,0-48.9,0-74.1,0c-0.1,0.3-0.1,0.5-0.2,0.8c-0.1,0.2-0.2,0.4-0.2,0.7     c0,0.1-0.1,0.3-0.1,0.4c-0.1,0.1-0.1,0.3-0.2,0.4c0,0.1-0.1,0.3-0.2,0.4c-0.2,0.5-0.4,1-0.6,1.5c-0.1,0.3-0.3,0.7-0.4,1.1     c-0.4,1-0.8,1.9-1.2,2.9c-0.3,0.8-0.6,1.6-1,2.4c-1.1,2.7-2.1,5.4-3.2,8.1c-0.1,0.2-0.2,0.4-0.2,0.6c-1.1,2.7-2.1,5.3-3.2,7.9     c-0.2,0.5-0.4,1.1-0.6,1.6c-0.3,0.8-0.7,1.6-1,2.5c-0.1,0.3-0.2,0.6-0.4,0.9c-0.2,0.4-0.3,0.8-0.5,1.2c0,0.1-0.1,0.2-0.1,0.4     c-0.3,0.8-0.3,0.8-0.5,1c-0.3,0-0.6,0-0.9,0c-0.2,0-0.4,0-0.6,0c-0.2,0-0.5,0-0.7,0s-0.5,0-0.7,0c-0.7,0-1.3,0-2,0s-1.4,0-2.1,0     c-1.2,0-2.5,0-3.7,0c-1.8,0-3.6,0-5.3,0c-2.9,0-5.8,0-8.6,0c-2.8,0-5.6,0-8.4,0c-0.3,0-0.3,0-0.5,0c-0.9,0-1.7,0-2.6,0     c-7.2,0-14.3,0-21.5,0c0.1-0.4,0.3-0.9,0.5-1.3c0-0.1,0.1-0.2,0.1-0.4c0.3-0.9,0.7-1.7,1-2.6c0.1-0.2,0.1-0.2,0.2-0.4     c0.1-0.3,0.2-0.6,0.4-0.8c0.3-0.8,0.7-1.5,1-2.3c0.1-0.2,0.1-0.3,0.2-0.5c0.6-1.4,1.2-2.8,1.8-4.3c0.1-0.2,0.1-0.2,0.1-0.4     c0.2-0.5,0.4-1,0.6-1.5c0.6-1.5,1.3-3.1,1.9-4.6c0.1-0.2,0.1-0.2,0.2-0.4c1-2.5,2.1-4.9,3.1-7.4c1-2.3,1.9-4.5,2.8-6.8     c1.1-2.6,2.2-5.2,3.2-7.7c1-2.3,1.9-4.5,2.8-6.8c1.1-2.6,2.2-5.2,3.2-7.7c1-2.3,1.9-4.5,2.8-6.8c1.1-2.6,2.2-5.2,3.2-7.7     c1-2.3,1.9-4.5,2.8-6.8c1.1-2.6,2.2-5.2,3.2-7.7c1-2.3,1.9-4.5,2.8-6.8c1.1-2.6,2.2-5.2,3.2-7.7c1-2.3,1.9-4.5,2.8-6.8     c1.1-2.6,2.2-5.2,3.2-7.7c1-2.3,1.9-4.5,2.8-6.8c1.4-3.3,2.8-6.7,4.2-10c0.6-1.5,1.3-3,1.9-4.4c0.2-0.5,0.4-0.9,0.6-1.4     c0.1-0.1,0.1-0.3,0.2-0.4c0.1-0.3,0.2-0.6,0.4-0.9c0.3-0.7,0.6-1.4,0.9-2.1c0-0.1,0.1-0.3,0.2-0.4c0.1-0.3,0.2-0.6,0.3-0.8     c0.3-0.9,0.3-0.9,1-1.2c0.2,0,0.3,0,0.5-0.1c0.1,0,0.3-0.1,0.5-0.1c0.1,0,0.3,0,0.5-0.1c0.2,0,0.3-0.1,0.5-0.1c1-0.1,2-0.3,3-0.4     c0.2,0,0.2,0,0.5-0.1C79.4,71.9,93.2,75.6,105.8,81.2z M108.4,88.2c-0.1,0.2-0.1,0.3-0.2,0.5c-1.5,3.8-3.1,7.7-4.7,11.5     c-0.9,2.3-1.9,4.6-2.8,6.9c-1.1,2.7-2.2,5.4-3.3,8.1c-1,2.4-2,4.8-2.9,7.3c-0.7,1.6-1.3,3.2-2,4.8c-2.1,5.1-2.1,5.1-4.1,10.2     c0,0.1-0.1,0.2-0.1,0.4c-0.1,0.3-0.3,0.7-0.4,1s-0.1,0.3-0.2,0.6c-0.2,0.4-0.2,0.4-0.1,0.6c13.9,0,27.8,0,42.2,0     c-0.8-2.2-0.8-2.2-1.7-4.3c0-0.1-0.1-0.3-0.2-0.4c-0.1-0.3-0.3-0.6-0.4-0.9c-0.4-0.8-0.7-1.7-1-2.5c-0.1-0.2-0.1-0.3-0.2-0.5     c-0.8-1.9-1.5-3.8-2.3-5.6c-0.1-0.3-0.3-0.7-0.4-1c-0.2-0.5-0.4-1-0.6-1.5c-0.7-1.7-1.4-3.5-2.1-5.2c0-0.1-0.1-0.3-0.2-0.4     c-0.9-2.2-1.8-4.4-2.7-6.7c-0.9-2.3-1.9-4.6-2.8-6.9c-0.7-1.6-1.3-3.2-2-4.8c0-0.1-0.1-0.3-0.2-0.4c0-0.1-0.1-0.3-0.2-0.4     c-1.4-3.3-2.7-6.7-4.1-10C108.5,88.2,108.4,88.2,108.4,88.2z"
   style="fill:#2e8555;stroke:none;stroke-opacity:1;stroke-width:0;stroke-dasharray:none;fill-opacity:1" />
			<path
   id="path14"
   class="st2"
   d="M152.1,73.7c0.8,0.1,1.4,0.1,2.2,0c1.2,0,2.1,0,3,0.7c1.2,1.6,1.8,3.7,2.4,5.6     c0.6,1.6,1.2,3.2,1.9,4.7c0.3,0.8,0.7,1.5,1,2.3c0.1,0.3,0.3,0.6,0.4,0.9c0.1,0.2,0.1,0.2,0.2,0.5c0.1,0.2,0.1,0.2,0.2,0.5     c0.5,1.2,1,2.5,1.6,3.7c0.1,0.2,0.1,0.2,0.2,0.5c1,2.4,2,4.8,3,7.3c0.9,2.1,1.8,4.2,2.7,6.3c1,2.3,1.9,4.5,2.8,6.8     c1,2.4,2,4.8,3.1,7.3c0.1,0.2,0.1,0.2,0.2,0.5c0.3,0.8,0.7,1.5,1,2.3c0.6,1.4,1.2,2.8,1.8,4.2c0.3,0.8,0.6,1.5,1,2.3     c0.1,0.3,0.3,0.6,0.4,0.9c0.1,0.2,0.1,0.3,0.2,0.5c0.6,1.4,0.6,1.4,0.8,1.8c0.1,0.3,0.3,0.6,0.4,0.9c0.3,0.8,0.7,1.5,1,2.3     c0.6,1.4,1.2,2.8,1.8,4.2c0.3,0.8,0.7,1.5,1,2.3c0.1,0.1,0.1,0.3,0.2,0.5c1,2.4,2,4.8,3,7.3c0.9,2.2,1.9,4.5,2.8,6.7     c1,2.3,1.9,4.6,2.9,6.9c0.9,2.1,1.8,4.3,2.7,6.4c1,2.3,1.9,4.5,2.8,6.8c1,2.4,2,4.8,3.1,7.3c0.1,0.2,0.1,0.3,0.2,0.5     c0.3,0.8,0.7,1.5,1,2.3c0.6,1.4,1.2,2.8,1.8,4.2c0.3,0.8,0.6,1.5,1,2.3c0.1,0.3,0.3,0.6,0.4,0.9c0.1,0.2,0.1,0.3,0.2,0.5     c0.3,0.7,0.3,0.7,0.6,1.4c0.1,0.1,0.1,0.3,0.2,0.5c0.1,0.3,0.3,0.6,0.4,0.9c0.3,0.8,0.6,1.5,1,2.3c0.6,1.4,1.2,2.8,1.8,4.2     c0.3,0.6,0.5,1.3,0.8,1.9c0.2,0.5,0.4,0.9,0.6,1.4c0.6,1.4,1.2,2.9,1.8,4.3c0.1,0.2,0.2,0.5,0.3,0.8c0.2,0.5,0.4,1,0.6,1.4     c0.1,0.2,0.2,0.4,0.3,0.6c0.1,0.2,0.1,0.4,0.2,0.5c0.2,0.4,0.2,0.4,0.2,0.8c-19.1,0-38.2,0-57.8,0c-0.4-0.9-0.8-1.7-1.2-2.5     c0-0.1-0.1-0.2-0.1-0.4c-0.1-0.2-0.2-0.5-0.3-0.8c-0.3-0.7-0.6-1.5-0.9-2.2c-0.1-0.2-0.1-0.3-0.2-0.5c-0.9-2.3-1.8-4.6-2.7-6.9     c-0.2-0.6-0.5-1.2-0.7-1.8c-0.1-0.2-0.2-0.5-0.3-0.7c0-0.1-0.1-0.2-0.1-0.4c-0.1-0.2-0.2-0.5-0.3-0.7c-0.9-2.3-1.8-4.6-2.7-6.9     c-0.1-0.3-0.2-0.5-0.3-0.8c-0.1-0.2-0.1-0.2-0.2-0.4c-0.5-1.2-0.9-2.3-1.4-3.5c-0.1-0.4-0.3-0.7-0.4-1.1     c-0.2-0.5-0.4-1.1-0.6-1.6c-0.2-0.5-0.4-1-0.6-1.5c0-0.1-0.1-0.3-0.2-0.4c0-0.1-0.1-0.3-0.2-0.4c0-0.1-0.1-0.2-0.1-0.3     c-0.1-0.3-0.2-0.5-0.3-0.8c-18.3-0.1-18.3-0.1-37.1-0.2c0-13.8,0-27.5,0-41.7c7,0,14,0,21.2,0c-0.9-2.2-1.9-4.5-2.8-6.8     c-1-2.4-1-2.4-1.4-3.6c-0.3-0.7-0.5-1.3-0.8-2c-0.1-0.3-0.3-0.7-0.4-1c-0.7-1.7-1.4-3.5-2.1-5.2c-0.1-0.3-0.2-0.6-0.4-0.9     c-0.2-0.4-0.4-0.9-0.5-1.3c-0.4-1.1-0.9-2.1-1.3-3.2c-1.2-3-2.5-6-3.7-9c-1-2.5-2-4.9-3-7.4c-0.6-1.5-1.2-3-1.8-4.5     c-0.1-0.3-0.2-0.6-0.4-0.9c-0.2-0.5-0.4-1.1-0.7-1.6c-0.2-0.6-0.5-1.2-0.7-1.8c-0.1-0.3-0.3-0.7-0.4-1c-0.7-1.6-0.8-3.1-0.8-4.8     c0-0.3,0-0.5,0-0.8c0-0.6,0-1.2,0-1.8c0.2-0.1,0.2-0.1,0.5-0.2c0-0.1,0.1-0.2,0.2-0.3c0.3-0.2,0.3-0.2,0.8-0.3     c0.2-0.1,0.3-0.1,0.5-0.2s0.3-0.1,0.5-0.2c0.4-0.1,0.7-0.3,1.1-0.4c0.2-0.1,0.4-0.1,0.5-0.2c0.6-0.2,1.2-0.5,1.7-0.7     c1.9-0.8,3.9-1.6,5.9-2.3c0.2-0.1,0.2-0.1,0.5-0.2c5-1.8,10.1-2.9,15.4-3.6c0.2,0,0.2,0,0.3,0C141.4,73.1,146.9,73,152.1,73.7     L152.1,73.7z"
   style="fill:#2e8555;stroke:none;stroke-opacity:1;stroke-width:0;stroke-dasharray:none;fill-opacity:1" />
			<path
   id="path16"
   class="st3"
   d="M110,0.4c0.3,0.1,0.6,0.2,0.8,0.3c0.3,0.1,0.6,0.2,0.9,0.3c0.2,0,0.3,0.1,0.5,0.2     c0.5,0.2,1,0.4,1.6,0.5c0.2,0,0.4,0.1,0.6,0.2c2.6,0.9,5.3,1.8,7.9,2.7c2.3,0.8,4.6,1.6,7,2.4c2.6,0.9,5.2,1.8,7.8,2.7     c2.3,0.8,4.7,1.6,7,2.4c2.6,0.9,5.3,1.8,7.9,2.7c2.2,0.8,4.5,1.5,6.7,2.3c2.4,0.8,4.8,1.6,7.1,2.5c2.5,0.9,5,1.7,7.4,2.6     c2.6,0.9,5.3,1.8,7.9,2.7c2.2,0.8,4.5,1.5,6.7,2.3c2.6,0.9,5.1,1.7,7.7,2.7c3.1,1.1,6.2,2.1,9.3,3.2c0,0.2,0,0.3,0,0.5     c-0.1,0-0.2,0.1-0.3,0.1c-1,0.4-2.1,0.7-3.1,1.1c-0.5,0.2-1.1,0.4-1.6,0.6c-0.6,0.2-1.2,0.4-1.8,0.6c-0.2,0-0.4,0.1-0.6,0.2     c-1,0.4-2,0.7-3,1.1c-0.4,0.1-0.4,0.1-0.9,0.1c0,17.6,0,35.2,0,53.4c-1.8,0-3.7,0-5.6,0c0-16.9-0.1-33.8-0.2-51.2     c-7.2,2.5-7.2,2.5-14.5,5c-2.1,0.7-4.1,1.4-6.2,2.2c-1.8,0.6-3.7,1.3-5.5,1.9c-0.2,0-0.3,0.1-0.5,0.2c-0.7,0.3-1.5,0.5-2.2,0.8     c-0.3,0.1-0.5,0.2-0.8,0.3c-0.1,0-0.2,0.1-0.3,0.1c-0.8,0.3-0.8,0.3-1.2,0.3c0,0.2,0.1,0.3,0.1,0.5c0.5,1.9,1,3.8,1.5,5.6     c0,0.2,0,0.2,0.1,0.4c0.2,0.8,0.4,1.5,0.6,2.3c0.2,0.8,0.4,1.6,0.6,2.4c0.1,0.6,0.3,1.2,0.4,1.8c0.1,0.3,0.1,0.6,0.2,0.9     c0.1,0.4,0.2,0.8,0.3,1.2c0,0.1,0,0.2,0.1,0.4c0.1,0.6,0.2,1,0,1.6c-0.1,0-0.3,0-0.4-0.1c-15.4-3.1-30.7-1.4-45.8,4.2     c-0.1,0-0.2,0.1-0.4,0.1c-1.1,0.4-2.2,0.8-3.2,1.3c-0.1,0-0.2,0.1-0.4,0.2c-0.2,0.1-0.4,0.2-0.7,0.3c-0.6,0.3-1,0.4-1.7,0.2     c-0.3-0.1-0.7-0.3-1-0.4s-0.3-0.1-0.6-0.2c-0.1,0-0.2-0.1-0.3-0.1c-2.2-0.9-4.4-1.8-6.6-2.5c-0.4-0.1-0.8-0.3-1.2-0.4     c-6.5-2.3-13.5-3.7-20.4-4.2c-0.1,0-0.2,0-0.4,0c-5.1-0.4-10.2-0.1-15.2,0.6c-0.1,0-0.2,0-0.3,0.1c-1.4,0.2-2.9,0.5-4.3,0.8     c-0.5,0.1-0.9,0.1-1.4,0.1c0.3-1.8,0.7-3.5,1.2-5.2c0.1-0.3,0.2-0.7,0.2-1c0.2-0.7,0.4-1.4,0.5-2.1c0.2-0.9,0.5-1.8,0.7-2.6     c0.2-0.7,0.3-1.4,0.5-2c0.1-0.3,0.2-0.7,0.2-1c0.1-0.4,0.2-0.9,0.3-1.4c0-0.1,0.1-0.3,0.1-0.4c0.2-0.9,0.2-0.9,0.4-1.3     c-0.1,0-0.2,0-0.3-0.1c-1.1-0.3-2.2-0.6-3.2-1c-0.2,0-0.3-0.1-0.5-0.2c-0.5-0.2-1.1-0.4-1.6-0.6c-0.4-0.1-0.8-0.3-1.2-0.4     c-0.8-0.3-1.6-0.5-2.4-0.8c-1.6-0.6-3.3-1.1-4.9-1.7c-0.9-0.3-1.8-0.6-2.7-0.9c-0.4-0.1-0.7-0.2-1.1-0.4     c-0.7-0.2-1.4-0.5-2.1-0.7c-0.3-0.1-0.3-0.1-0.5-0.2c-0.3-0.1-0.7-0.2-1.1-0.4c-0.9-0.3-1.8-0.6-2.7-0.9     c-1.6-0.5-3.2-1.1-4.8-1.6c-0.9-0.3-1.8-0.6-2.7-0.9c-0.2-0.1-0.3-0.1-0.5-0.2c-2.1-0.7-4.2-1.4-6.2-2.2     c-0.3-0.1-0.3-0.1-0.6-0.2c-1-0.3-2-0.7-2.9-1c-2.1-0.7-4.2-1.5-6.4-2.2c0-0.2,0-0.3,0-0.5c0.1,0,0.2-0.1,0.3-0.1     c4.3-1.5,8.7-2.9,13-4.4c2.3-0.8,4.6-1.6,6.9-2.4c2.5-0.8,4.9-1.7,7.4-2.6s4.9-1.7,7.4-2.6c2.6-0.9,5.3-1.8,7.9-2.7     c2.4-0.8,4.8-1.6,7.2-2.5c2.2-0.8,4.4-1.5,6.7-2.3c2.6-0.9,5.3-1.8,7.9-2.7c2.3-0.8,4.6-1.6,6.9-2.4c2.5-0.9,4.9-1.7,7.4-2.6     c2.4-0.8,4.7-1.6,7.1-2.4c0.4-0.2,0.9-0.3,1.3-0.5c1.3-0.5,2.6-0.9,3.9-1.4c0.6-0.2,1.2-0.4,1.7-0.6c0.3-0.1,0.5-0.2,0.8-0.3     c0.4-0.1,0.7-0.3,1.1-0.4c0.1,0,0.2-0.1,0.3-0.1C108.4-0.2,109.1,0,110,0.4z"
   style="fill:#2e8555;stroke:none;stroke-opacity:1;stroke-width:0;stroke-dasharray:none;fill-opacity:1" />
		</g>
	</g>
</g>
<g
   id="icon_name_and_slogan_gap">
</g>

<g
   id="g44">
</g>
<rect
   id="rect4169"
   y="-1"
   class="st0"
   width="650.5"
   height="217.7" />
<g
   class="st5"
   id="g36"
   style="fill:#ccffaa;stroke:#000000;stroke-width:11.225;stroke-dasharray:none;stroke-dashoffset:0;stroke-opacity:1"
   transform="matrix(1.1686141,0,0,1.2938818,-84.695046,-51.229866)">
	
	
	
	
	
	
	
	
<path
   style="font-size:56px;font-family:'Source Han Sans SC VF';-inkscape-font-specification:'Source Han Sans SC VF, @wght=900';font-variation-settings:'wght' 900;text-align:center;text-anchor:middle;fill:#ccffaa;stroke:#000000;stroke-width:11.225;stroke-linecap:round;stroke-linejoin:round;stroke-dasharray:none;stroke-dashoffset:0;stroke-opacity:1;paint-order:markers stroke fill"
   d="m 283.99806,200.95655 v -41.72 h 10.024 v 33.32 h 16.24 v 8.4 z m 32.70398,0 v -31.864 h 9.968 v 31.864 z m 4.984,-36.288 q -2.52,0 -4.032,-1.4 -1.512,-1.4 -1.512,-3.752 0,-2.296 1.512,-3.696 1.512,-1.4 4.032,-1.4 2.464,0 3.976,1.4 1.568,1.4 1.568,3.696 0,2.352 -1.568,3.752 -1.512,1.4 -3.976,1.4 z m 25.53595,37.072 q -3.976,0 -6.496,-1.568 -2.464,-1.624 -3.64,-4.424 -1.12,-2.856 -1.12,-6.608 v -12.264 h -4.312 v -7.392 l 4.928,-0.392 1.12,-8.456 h 8.232 v 8.456 h 7.504 v 7.784 h -7.504 v 12.152 q 0,2.632 1.12,3.808 1.176,1.12 2.912,1.12 0.784,0 1.568,-0.168 0.784,-0.224 1.344,-0.448 l 1.568,7.224 q -1.232,0.392 -3.024,0.784 -1.736,0.392 -4.2,0.392 z m 25.20002,0 q -4.592,0 -8.288,-1.96 -3.64,-2.016 -5.824,-5.768 -2.128,-3.752 -2.128,-9.016 0,-3.864 1.232,-6.944 1.288,-3.08 3.416,-5.264 2.184,-2.184 4.872,-3.304 2.744,-1.176 5.6,-1.176 4.592,0 7.616,2.016 3.024,2.016 4.536,5.488 1.512,3.472 1.512,7.84 0,1.344 -0.168,2.52 -0.112,1.176 -0.28,1.792 h -18.704 q 0.448,2.184 1.568,3.528 1.12,1.344 2.744,2.016 1.624,0.616 3.64,0.616 1.736,0 3.36,-0.504 1.624,-0.504 3.36,-1.512 l 3.304,5.992 q -2.464,1.736 -5.544,2.688 -3.024,0.952 -5.824,0.952 z m -6.776,-20.328 h 10.864 q 0,-2.352 -1.176,-3.92 -1.12,-1.568 -3.864,-1.568 -1.344,0 -2.576,0.616 -1.176,0.56 -2.072,1.792 -0.84,1.176 -1.176,3.08 z m 39.31205,19.544 v -41.72 h 26.432 v 8.344 h -16.408 v 7.728 h 13.944 v 8.4 h -13.944 v 8.848 h 17.024 v 8.4 z m 44.856,0.784 q -3.976,0 -6.944,-2.016 -2.912,-2.016 -4.536,-5.768 -1.568,-3.752 -1.568,-8.96 0,-5.208 1.904,-8.904 1.904,-3.752 4.928,-5.768 3.024,-2.016 6.328,-2.016 2.632,0 4.368,0.896 1.736,0.896 3.304,2.408 l -0.336,-4.76 v -10.64 h 9.968 v 44.744 h -8.12 l -0.728,-3.08 h -0.224 q -1.68,1.68 -3.864,2.8 -2.184,1.064 -4.48,1.064 z m 2.632,-8.176 q 1.456,0 2.576,-0.56 1.176,-0.56 2.24,-2.128 v -12.544 q -1.12,-1.064 -2.408,-1.456 -1.288,-0.448 -2.576,-0.448 -1.344,0 -2.576,0.896 -1.176,0.896 -1.96,2.744 -0.728,1.848 -0.728,4.816 0,3.024 0.616,4.984 0.672,1.904 1.904,2.8 1.232,0.896 2.912,0.896 z m 22.79205,7.392 v -31.864 h 9.968 v 31.864 z m 4.984,-36.288 q -2.52,0 -4.032,-1.4 -1.512,-1.4 -1.512,-3.752 0,-2.296 1.512,-3.696 1.512,-1.4 4.032,-1.4 2.464,0 3.976,1.4 1.568,1.4 1.568,3.696 0,2.352 -1.568,3.752 -1.512,1.4 -3.976,1.4 z m 25.53595,37.072 q -3.976,0 -6.496,-1.568 -2.464,-1.624 -3.64,-4.424 -1.12,-2.856 -1.12,-6.608 v -12.264 h -4.312 v -7.392 l 4.928,-0.392 1.12,-8.456 h 8.232 v 8.456 h 7.504 v 7.784 h -7.504 v 12.152 q 0,2.632 1.12,3.808 1.176,1.12 2.912,1.12 0.784,0 1.568,-0.168 0.784,-0.224 1.344,-0.448 l 1.568,7.224 q -1.232,0.392 -3.024,0.784 -1.736,0.392 -4.2,0.392 z m 12.37599,-0.784 v -31.864 h 9.968 v 31.864 z m 4.984,-36.288 q -2.52,0 -4.032,-1.4 -1.512,-1.4 -1.512,-3.752 0,-2.296 1.512,-3.696 1.512,-1.4 4.032,-1.4 2.464,0 3.976,1.4 1.568,1.4 1.568,3.696 0,2.352 -1.568,3.752 -1.512,1.4 -3.976,1.4 z m 26.82395,37.072 q -4.032,0 -7.616,-1.96 -3.584,-2.016 -5.824,-5.768 -2.184,-3.752 -2.184,-9.016 0,-5.264 2.184,-8.96 2.24,-3.752 5.824,-5.712 3.584,-2.016 7.616,-2.016 3.024,0 5.824,1.12 2.8,1.12 4.984,3.304 2.184,2.128 3.472,5.208 1.288,3.08 1.288,7.056 0,5.264 -2.24,9.016 -2.184,3.752 -5.768,5.768 -3.528,1.96 -7.56,1.96 z m 0,-8.064 q 1.848,0 3.024,-1.064 1.232,-1.064 1.792,-3.024 0.56,-1.96 0.56,-4.592 0,-2.632 -0.56,-4.536 -0.56,-1.96 -1.792,-3.024 -1.176,-1.064 -3.024,-1.064 -1.848,0 -3.08,1.064 -1.176,1.064 -1.792,3.024 -0.56,1.904 -0.56,4.536 0,2.632 0.56,4.592 0.616,1.96 1.792,3.024 1.232,1.064 3.08,1.064 z m 21.83994,7.28 v -31.864 h 8.12 l 0.728,3.976 h 0.168 q 1.96,-1.96 4.424,-3.36 2.52,-1.4 5.768,-1.4 5.208,0 7.56,3.472 2.352,3.472 2.352,9.464 v 19.712 h -9.968 v -18.48 q 0,-3.304 -0.896,-4.48 -0.896,-1.176 -2.8,-1.176 -1.68,0 -2.856,0.728 -1.176,0.728 -2.632,2.128 v 21.28 z"
   id="text1"
   aria-label="Lite Edition" /></g><path
   style="font-size:102.037px;font-family:'Source Han Sans SC VF';-inkscape-font-specification:'Source Han Sans SC VF, @wght=900';font-variation-settings:'wght' 900;text-align:center;text-anchor:middle;fill:#f2f2f2;stroke:#000000;stroke-width:25.3905;stroke-linecap:round;stroke-linejoin:round;stroke-dasharray:none;paint-order:markers stroke fill"
   d="m 231.55832,42.634168 h 91.20683 V 55.442374 H 231.55832 Z M 230.5254,20.42639 h 93.06608 V 33.337889 H 230.5254 Z m 20.86499,-5.681059 h 14.87404 v 23.757157 h -14.87404 z m 17.45634,61.35544 h 15.08063 v 35.325859 h -15.08063 z m 18.90243,-61.35544 h 14.97734 v 24.170325 h -14.97734 z m 4.54485,61.252148 h 14.46088 v 19.832062 q 0,2.272419 0.30987,2.788889 0.41317,0.51645 1.54939,0.51645 0.30987,0 0.92962,0 0.61975,0 1.2395,0 0.72305,0 1.03292,0 0.82634,0 1.23951,-0.61975 0.41317,-0.723045 0.72305,-2.685589 0.30987,-1.962545 0.41317,-5.887644 2.06584,1.65267 5.78434,3.098759 3.71851,1.44609 6.5074,2.169135 -0.61975,6.404099 -2.16914,9.916029 -1.44609,3.61521 -4.13168,5.0613 -2.58229,1.44609 -6.71397,1.44609 -0.82634,0 -1.85926,0 -0.92962,0 -1.96254,0 -1.03292,0 -1.96256,0 -0.92962,0 -1.75595,0 -5.57777,0 -8.57325,-1.54937 -2.89217,-1.44609 -4.02838,-4.85473 -1.03292,-3.40863 -1.03292,-9.296274 z m -47.10114,-0.413168 h 15.2872 v 8.160067 q 0,3.202051 -0.82633,7.230439 -0.82633,4.028384 -3.20205,8.160063 -2.37571,4.02839 -6.92056,7.7469 -4.54485,3.71851 -11.87858,6.4041 -1.03292,-1.44609 -2.99547,-3.40863 -1.85925,-1.96255 -4.02839,-3.92509 -2.06583,-1.85926 -3.7185,-2.99548 6.09422,-1.96254 9.70944,-4.44155 3.61522,-2.582294 5.47448,-5.267894 1.85925,-2.788874 2.47901,-5.371179 0.61975,-2.685591 0.61975,-4.648139 z m 23.03411,-38.631202 14.151,-3.305344 q 1.44609,2.788884 2.78889,6.197519 1.34279,3.305344 1.96254,5.887643 l -14.97733,3.718512 q -0.41317,-2.479008 -1.54939,-5.990935 -1.13621,-3.61522 -2.37571,-6.507395 z m -26.23617,9.192986 h 15.4938 v 14.667462 h 59.08302 V 73.41518 H 241.99081 Z M 347.8651,18.670427 h 79.53483 v 13.53125 H 347.8651 Z m -8.88311,0 h 14.77075 v 30.471136 q 0,6.610687 -0.41317,14.667462 -0.30987,7.953483 -1.44609,16.423425 -1.03292,8.366651 -3.09875,16.216841 -2.06584,7.746899 -5.47448,14.047709 -1.44609,-1.13621 -3.9251,-2.5823 -2.37571,-1.44609 -4.95801,-2.78888 -2.47901,-1.3428 -4.33827,-1.96255 3.09876,-5.784354 4.85473,-12.601623 1.85926,-6.920561 2.6856,-14.151 0.82633,-7.333731 1.03292,-14.254295 0.30987,-7.023854 0.30987,-13.014789 z m 34.91269,45.345182 v 5.061307 h 31.50406 v -5.061307 z m 0,-15.183922 v 4.958015 h 31.50406 V 48.831687 Z M 359.22722,37.779445 h 61.66531 v 42.349713 h -61.66531 z m 23.34398,33.983063 h 14.56418 V 98.72172 q 0,4.75143 -1.13622,7.6436 -1.03292,2.89218 -4.33826,4.33827 -3.20205,1.54937 -7.43703,1.85925 -4.23496,0.30987 -9.39956,0.30987 -0.41317,-2.99546 -1.65268,-6.71397 -1.1362,-3.71851 -2.37571,-6.50739 2.6856,0.10329 5.78436,0.10329 3.09876,0 4.13167,0 1.13621,0 1.44608,-0.30988 0.41317,-0.30988 0.41317,-1.13621 z m -3.20205,-40.07729 18.1794,2.065839 q -2.58231,3.821804 -5.1646,6.920563 -2.58231,3.09876 -4.64815,5.267891 L 373.6881,43.25392 q 1.65267,-2.685592 3.20205,-5.784351 1.54938,-3.202052 2.479,-5.784351 z m 20.55511,56.294131 11.98187,-6.300811 q 2.5823,3.09876 5.78435,6.920563 3.20205,3.821805 6.19752,7.540315 3.09876,3.615224 5.06131,6.404094 l -12.9115,7.33374 q -1.65267,-2.89217 -4.44156,-6.71398 -2.78888,-3.71851 -5.88764,-7.746899 -3.09876,-4.028384 -5.78435,-7.437022 z m -35.11927,-5.990935 14.151,4.648139 q -2.37571,3.925094 -5.37119,8.160068 -2.99546,4.234979 -6.09422,8.056779 -3.09876,3.82179 -5.78435,6.61068 -1.44609,-1.2395 -3.71852,-2.78889 -2.27242,-1.44608 -4.64814,-2.89217 -2.37571,-1.44609 -4.23497,-2.37571 4.23497,-3.615225 8.57323,-8.986404 4.33827,-5.371185 7.12716,-10.432492 z m 76.12619,-48.753817 h 74.47352 v 14.667462 h -74.47352 z m 68.58588,0 h 3.40863 l 2.89217,-0.723044 11.56871,7.540315 q -5.57777,8.366651 -12.80821,16.733301 -7.23044,8.26336 -15.59709,16.010259 -8.26336,7.643606 -17.04317,14.357585 -8.77983,6.713983 -17.55964,11.981867 -1.75596,-2.478999 -4.85472,-5.577759 -2.99547,-3.202054 -5.68107,-5.267896 8.26336,-4.648139 16.52672,-10.845658 8.36665,-6.300811 15.90697,-13.324666 7.54031,-7.127148 13.53125,-14.151003 5.99094,-7.127146 9.70945,-13.324665 z M 471.29902,20.42639 484.83027,13.09266 q 1.96255,2.479007 4.23497,5.577767 2.27243,2.995467 4.33827,5.990936 2.16913,2.892175 3.40864,5.164599 l -14.46088,8.263358 q -1.03292,-2.375715 -2.99548,-5.371183 -1.85925,-3.098759 -4.02838,-6.300811 -2.16914,-3.305343 -4.02839,-5.990936 z m -12.8082,65.073952 q 2.58229,0 5.0613,1.962547 2.58231,1.962548 6.81727,4.544847 4.95802,3.202055 11.67199,4.13168 6.81728,0.929625 15.28722,0.929625 4.85472,0 11.25882,-0.309875 6.50741,-0.309875 12.91151,-0.929625 6.50739,-0.61975 11.46541,-1.44609 -0.72305,1.962545 -1.75597,4.958019 -0.92962,2.99546 -1.65266,5.88764 -0.72305,2.99547 -0.82634,5.06131 -2.68559,0.20658 -6.61069,0.41317 -3.82181,0.20658 -8.26336,0.30987 -4.33826,0.20658 -8.77982,0.30988 -4.44155,0.10329 -8.36665,0.10329 -9.70945,0 -16.21684,-1.34279 -6.5074,-1.23951 -11.98187,-4.33827 -3.51193,-2.06584 -6.09423,-4.13168 -2.5823,-2.06584 -4.33826,-2.06584 -1.54938,0 -3.51193,2.16913 -1.96255,2.06584 -4.02839,5.2679 -2.06584,3.20204 -4.02838,6.4041 l -10.74237,-14.151 q 5.78435,-6.197524 11.98187,-9.916035 6.19752,-3.821803 10.74237,-3.821803 z m 101.94921,2.272423 11.98186,-7.953482 q 3.40864,1.446087 7.54032,3.511927 4.23497,1.962548 8.16006,4.028387 4.02838,2.06584 6.71398,3.925095 l -12.9115,8.779828 q -2.27242,-1.75597 -5.99093,-3.925104 -3.71852,-2.27242 -7.8502,-4.441554 -4.02838,-2.272425 -7.64359,-3.925097 z m 15.90695,-22.207776 h 38.63121 V 77.753443 H 564.15853 Z M 540.0915,23.111983 h 45.1386 v 12.49833 h -45.1386 z m 16.52672,-8.366652 h 13.53124 v 46.068226 h -13.53124 z m 31.09088,8.366652 h 46.58469 v 12.49833 H 587.7091 Z m 14.87405,-8.366652 h 13.84113 v 46.068226 h -13.84113 z m 15.70039,15.493799 q 2.16912,3.408635 5.26788,6.920563 3.20205,3.408635 6.92056,6.404103 3.71851,2.892175 7.33374,4.958015 -2.27242,1.859255 -5.1646,5.061307 -2.78889,3.098759 -4.44156,5.681059 -3.71851,-2.892176 -7.43703,-7.023855 -3.61521,-4.131679 -6.81726,-8.88311 -3.09876,-4.751432 -5.37118,-9.399571 z m -48.23736,4.648139 q 1.1362,0.51646 3.30534,1.755964 2.16913,1.136212 4.54485,2.582299 2.47901,1.342796 4.44155,2.5823 2.06584,1.136212 2.89218,1.652672 l -7.23044,12.395038 q -1.23951,-1.54938 -3.09876,-3.408636 -1.75596,-1.962548 -3.8218,-4.028387 -2.06584,-2.06584 -4.0284,-3.821804 -1.85925,-1.859255 -3.30534,-3.098759 z m -13.73784,-5.371183 9.39957,3.511927 q -2.16913,4.958015 -5.37118,10.019323 -3.20205,4.958015 -6.81727,9.39957 -3.61522,4.338263 -7.33373,7.437023 -1.65267,-2.375716 -4.44156,-5.474475 -2.68559,-3.09876 -4.95802,-4.854723 3.61523,-2.272424 7.33374,-5.474476 3.71851,-3.305343 6.92056,-7.023854 3.20205,-3.821804 5.26789,-7.540315 z m 46.99785,0 9.60616,3.615219 q -2.37572,4.854723 -5.78435,9.812739 -3.30534,4.854723 -7.23044,8.986402 -3.82181,4.131679 -7.95349,7.023855 -1.65266,-2.375716 -4.44155,-5.577767 -2.78888,-3.202052 -5.0613,-5.061307 4.02838,-2.06584 7.95348,-5.061307 3.92509,-3.09876 7.33372,-6.610687 3.40864,-3.61522 5.57777,-7.127147 z m -25.40982,26.442747 15.08062,5.887644 q -5.0613,5.1646 -11.46541,9.916031 -6.4041,4.751431 -13.53124,8.779818 -7.12716,3.925096 -14.151,6.713979 -1.44609,-1.652671 -3.51193,-3.511927 -2.06584,-1.962548 -4.23498,-3.821804 -2.16913,-1.859255 -3.92509,-2.995467 7.12715,-2.375716 14.04771,-5.784351 6.92056,-3.408635 12.60162,-7.333731 5.68106,-3.925096 9.0897,-7.850192 z m 31.91722,9.606156 h 3.09876 l 2.5823,-0.51646 10.3292,6.817271 q -5.2679,9.192986 -13.22138,16.113549 -7.95348,6.817272 -17.97281,11.672001 -10.01932,4.85472 -21.48472,7.95348 -11.46542,3.09876 -23.65387,4.85472 -0.61975,-1.96255 -1.96255,-4.64814 -1.2395,-2.68559 -2.78888,-5.1646 -1.54938,-2.58229 -2.99547,-4.23497 11.77529,-1.136209 22.41436,-3.408639 10.74237,-2.27242 19.72877,-5.88764 8.9864,-3.718511 15.59709,-8.883111 6.71398,-5.267891 10.3292,-12.291745 z"
   id="text2"
   aria-label="荒原之梦" />
</svg>
