<?xml version="1.0" encoding="UTF-8" standalone="no"?>
<!-- Generator: Adobe Illustrator 22.1.0, SVG Export Plug-In . SVG Version: 6.00 Build 0)  -->

<svg
   version="1.1"
   id="svg18"
   inkscape:export-filename="闁艰姤甯掔敮绋婄€ｅ徍02.png"
   inkscape:export-xdpi="96"
   inkscape:export-ydpi="96"
   inkscape:version="1.4 (86a8ad7, 2024-10-11)"
   sodipodi:docname="logo.svg"
   x="0px"
   y="0px"
   viewBox="0 0 423150.25 47393.29"
   xml:space="preserve"
   width="423150.25"
   height="47393.289"
   xmlns:inkscape="http://www.inkscape.org/namespaces/inkscape"
   xmlns:sodipodi="http://sodipodi.sourceforge.net/DTD/sodipodi-0.dtd"
   xmlns="http://www.w3.org/2000/svg"
   xmlns:svg="http://www.w3.org/2000/svg"><defs
   id="defs39" />
<style
   type="text/css"
   id="style2">
	.st0{fill:none;}
	.st1{fill:#45DD1B;}
	.st2{fill:#00C800;}
	.st3{fill:#F77B61;}
	.st4{fill:#90FF90;}
	.st5{enable-background:new    ;}
	.st6{fill:#FFFFFF;}
</style>
<sodipodi:namedview
   bordercolor="#000000"
   borderopacity="0.25"
   id="namedview57"
   inkscape:current-layer="svg18"
   inkscape:cx="-132.94461"
   inkscape:cy="558.0175"
   inkscape:deskcolor="#d1d1d1"
   inkscape:pagecheckerboard="0"
   inkscape:pageopacity="0.0"
   inkscape:showpageshadow="2"
   inkscape:window-height="974"
   inkscape:window-maximized="1"
   inkscape:window-width="1920"
   inkscape:window-x="-11"
   inkscape:window-y="-11"
   inkscape:zoom="0.28583333"
   pagecolor="#00c800"
   showgrid="false"
   inkscape:export-bgcolor="#00c80000">
	<inkscape:page
   x="0"
   y="0"
   width="423150.25"
   height="47393.289"
   id="page2"
   margin="0"
   bleed="0" /></sodipodi:namedview>
<desc
   id="desc2">Created with Snap</desc>
<rect
   id="rect6"
   x="-6580.3999"
   y="-2363.5"
   class="st0"
   width="13010.8"
   height="4354.1001" />
<g
   id="g32"
   style="fill:#ffffff;stroke:none;stroke-width:0;stroke-dasharray:none;stroke-opacity:1">
	<desc
   id="desc8">Created with Snap</desc>
	<g
   id="g26"
   style="fill:#ffffff;stroke:none;stroke-width:0;stroke-dasharray:none;stroke-opacity:1">
		<g
   id="g22"
   style="fill:#ffffff;stroke:none;stroke-width:0;stroke-dasharray:none;stroke-opacity:1">
			<path
   id="path12"
   class="st1"
   d="m 105.8,81.2 c 0.2,0.1 0.3,0.1 0.5,0.2 0.3,0.1 0.6,0.3 0.9,0.4 0.1,0.1 0.3,0.1 0.4,0.2 0.1,0 0.2,0.1 0.3,0.1 0.7,0.2 1.4,-0.1 2,-0.4 0.2,-0.1 0.3,-0.1 0.5,-0.2 0.2,-0.1 0.2,-0.1 0.5,-0.2 0.3,-0.1 0.3,-0.1 0.5,-0.2 0.8,-0.3 1.6,-0.7 2.4,-1 2.1,-0.9 4.2,-1.7 6.3,-2.4 0.1,-0.1 0.3,-0.1 0.5,-0.2 5,-1.8 10.1,-2.9 15.4,-3.6 0.1,0 0.2,0 0.3,0 5.2,-0.7 10.7,-0.8 15.8,-0.1 0.8,0.1 1.5,0.1 2.2,0 1.2,0 2.1,0 3,0.7 1.2,1.6 1.8,3.7 2.4,5.6 0.6,1.6 1.2,3.2 1.9,4.7 0.3,0.8 0.7,1.5 1,2.3 0.1,0.3 0.3,0.6 0.4,0.9 0.1,0.2 0.1,0.2 0.2,0.5 0.1,0.2 0.1,0.2 0.2,0.5 0.5,1.2 1.1,2.5 1.6,3.7 0.1,0.1 0.1,0.3 0.2,0.5 1,2.4 2,4.8 3,7.3 0.9,2.1 1.8,4.2 2.7,6.3 1,2.3 1.9,4.5 2.9,6.8 1,2.4 2,4.8 3,7.3 0.1,0.2 0.1,0.3 0.2,0.5 0.3,0.8 0.7,1.5 1,2.3 0.6,1.4 1.2,2.8 1.8,4.2 0.3,0.8 0.7,1.5 1,2.3 0.1,0.3 0.3,0.6 0.4,0.9 0.1,0.2 0.1,0.2 0.2,0.5 0.6,1.4 0.6,1.4 0.8,1.8 0.1,0.3 0.3,0.6 0.4,0.9 0.3,0.8 0.7,1.5 1,2.3 0.6,1.4 1.2,2.8 1.8,4.2 0.3,0.8 0.7,1.5 1,2.3 0.1,0.1 0.1,0.3 0.2,0.5 1,2.4 2,4.8 3,7.3 0.9,2.3 1.9,4.5 2.8,6.7 1,2.3 1.9,4.6 2.9,6.9 0.9,2.1 1.8,4.3 2.7,6.4 1,2.3 1.9,4.5 2.9,6.8 1,2.4 2,4.8 3,7.3 0.1,0.2 0.1,0.3 0.2,0.5 0.3,0.8 0.7,1.5 1,2.3 0.6,1.4 1.2,2.8 1.8,4.2 0.3,0.8 0.7,1.5 1,2.3 0.1,0.3 0.3,0.6 0.4,0.9 0.1,0.2 0.1,0.3 0.2,0.5 0.2,0.5 0.4,0.9 0.6,1.4 0,0.1 0.1,0.3 0.2,0.5 0.1,0.3 0.3,0.6 0.4,0.9 0.3,0.8 0.7,1.5 1,2.3 0.6,1.4 1.2,2.8 1.8,4.2 0.3,0.6 0.5,1.3 0.8,1.9 0.2,0.5 0.4,0.9 0.6,1.4 0.6,1.4 1.2,2.9 1.8,4.3 0.1,0.2 0.2,0.5 0.3,0.8 0.2,0.5 0.4,1 0.6,1.4 0.1,0.2 0.2,0.4 0.3,0.6 0.1,0.2 0.1,0.4 0.2,0.5 0.2,0.4 0.2,0.4 0.2,0.8 -19.1,0 -38.2,0 -57.8,0 -0.4,-0.9 -0.8,-1.7 -1.2,-2.5 -0.1,-0.2 -0.1,-0.2 -0.1,-0.3 -0.1,-0.3 -0.2,-0.5 -0.3,-0.8 -0.3,-0.7 -0.6,-1.5 -0.9,-2.2 -0.1,-0.2 -0.1,-0.3 -0.2,-0.5 -0.9,-2.3 -1.8,-4.6 -2.7,-6.9 -0.2,-0.6 -0.5,-1.2 -0.7,-1.8 -0.1,-0.2 -0.2,-0.5 -0.3,-0.7 0,-0.1 -0.1,-0.2 -0.1,-0.4 -0.1,-0.2 -0.2,-0.5 -0.3,-0.7 -0.9,-2.3 -1.8,-4.6 -2.7,-6.9 -0.5,-1.4 -1.1,-2.8 -1.6,-4.1 -0.3,-0.7 -0.6,-1.5 -0.9,-2.2 -0.1,-0.3 -0.3,-0.7 -0.4,-1.1 -0.2,-0.5 -0.4,-1 -0.6,-1.5 -0.1,-0.2 -0.1,-0.2 -0.2,-0.5 0,-0.1 -0.1,-0.3 -0.1,-0.4 0,-0.1 -0.1,-0.2 -0.1,-0.3 -0.1,-0.3 -0.1,-0.3 -0.1,-0.8 -24.5,0 -48.9,0 -74.1,0 -0.1,0.3 -0.1,0.5 -0.2,0.8 -0.1,0.2 -0.2,0.4 -0.2,0.7 0,0.1 -0.1,0.3 -0.1,0.4 -0.1,0.1 -0.1,0.3 -0.2,0.4 0,0.1 -0.1,0.3 -0.2,0.4 -0.2,0.5 -0.4,1 -0.6,1.5 -0.1,0.3 -0.3,0.7 -0.4,1.1 -0.4,1 -0.8,1.9 -1.2,2.9 -0.3,0.8 -0.6,1.6 -1,2.4 -1.1,2.7 -2.1,5.4 -3.2,8.1 -0.1,0.2 -0.2,0.4 -0.2,0.6 -1.1,2.7 -2.1,5.3 -3.2,7.9 -0.2,0.5 -0.4,1.1 -0.6,1.6 -0.3,0.8 -0.7,1.6 -1,2.5 -0.1,0.3 -0.2,0.6 -0.4,0.9 -0.2,0.4 -0.3,0.8 -0.5,1.2 0,0.1 -0.1,0.2 -0.1,0.4 -0.3,0.8 -0.3,0.8 -0.5,1 -0.3,0 -0.6,0 -0.9,0 -0.2,0 -0.4,0 -0.6,0 -0.2,0 -0.5,0 -0.7,0 -0.2,0 -0.5,0 -0.7,0 -0.7,0 -1.3,0 -2,0 -0.7,0 -1.4,0 -2.1,0 -1.2,0 -2.5,0 -3.7,0 -1.8,0 -3.6,0 -5.3,0 -2.9,0 -5.8,0 -8.6,0 -2.8,0 -5.6,0 -8.4,0 -0.3,0 -0.3,0 -0.5,0 -0.9,0 -1.7,0 -2.6,0 -7.2,0 -14.3,0 -21.5,0 0.1,-0.4 0.3,-0.9 0.5,-1.3 0,-0.1 0.1,-0.2 0.1,-0.4 0.3,-0.9 0.7,-1.7 1,-2.6 0.1,-0.2 0.1,-0.2 0.2,-0.4 0.1,-0.3 0.2,-0.6 0.4,-0.8 0.3,-0.8 0.7,-1.5 1,-2.3 0.1,-0.2 0.1,-0.3 0.2,-0.5 0.6,-1.4 1.2,-2.8 1.8,-4.3 0.1,-0.2 0.1,-0.2 0.1,-0.4 0.2,-0.5 0.4,-1 0.6,-1.5 0.6,-1.5 1.3,-3.1 1.9,-4.6 0.1,-0.2 0.1,-0.2 0.2,-0.4 1,-2.5 2.1,-4.9 3.1,-7.4 1,-2.3 1.9,-4.5 2.8,-6.8 1.1,-2.6 2.2,-5.2 3.2,-7.7 1,-2.3 1.9,-4.5 2.8,-6.8 1.1,-2.6 2.2,-5.2 3.2,-7.7 1,-2.3 1.9,-4.5 2.8,-6.8 1.1,-2.6 2.2,-5.2 3.2,-7.7 1,-2.3 1.9,-4.5 2.8,-6.8 1.1,-2.6 2.2,-5.2 3.2,-7.7 1,-2.3 1.9,-4.5 2.8,-6.8 1.1,-2.6 2.2,-5.2 3.2,-7.7 1,-2.3 1.9,-4.5 2.8,-6.8 1.1,-2.6 2.2,-5.2 3.2,-7.7 1,-2.3 1.9,-4.5 2.8,-6.8 1.4,-3.3 2.8,-6.7 4.2,-10 0.6,-1.5 1.3,-3 1.9,-4.4 0.2,-0.5 0.4,-0.9 0.6,-1.4 0.1,-0.1 0.1,-0.3 0.2,-0.4 0.1,-0.3 0.2,-0.6 0.4,-0.9 0.3,-0.7 0.6,-1.4 0.9,-2.1 0,-0.1 0.1,-0.3 0.2,-0.4 0.1,-0.3 0.2,-0.6 0.3,-0.8 0.3,-0.9 0.3,-0.9 1,-1.2 0.2,0 0.3,0 0.5,-0.1 0.1,0 0.3,-0.1 0.5,-0.1 0.1,0 0.3,0 0.5,-0.1 0.2,0 0.3,-0.1 0.5,-0.1 1,-0.1 2,-0.3 3,-0.4 0.2,0 0.2,0 0.5,-0.1 13.8,-1.8 27.6,1.9 40.2,7.5 z m 2.6,7 c -0.1,0.2 -0.1,0.3 -0.2,0.5 -1.5,3.8 -3.1,7.7 -4.7,11.5 -0.9,2.3 -1.9,4.6 -2.8,6.9 -1.1,2.7 -2.2,5.4 -3.3,8.1 -1,2.4 -2,4.8 -2.9,7.3 -0.7,1.6 -1.3,3.2 -2,4.8 -2.1,5.1 -2.1,5.1 -4.1,10.2 0,0.1 -0.1,0.2 -0.1,0.4 -0.1,0.3 -0.3,0.7 -0.4,1 -0.1,0.3 -0.1,0.3 -0.2,0.6 -0.2,0.4 -0.2,0.4 -0.1,0.6 13.9,0 27.8,0 42.2,0 -0.8,-2.2 -0.8,-2.2 -1.7,-4.3 0,-0.1 -0.1,-0.3 -0.2,-0.4 -0.1,-0.3 -0.3,-0.6 -0.4,-0.9 -0.4,-0.8 -0.7,-1.7 -1,-2.5 -0.1,-0.2 -0.1,-0.3 -0.2,-0.5 -0.8,-1.9 -1.5,-3.8 -2.3,-5.6 -0.1,-0.3 -0.3,-0.7 -0.4,-1 -0.2,-0.5 -0.4,-1 -0.6,-1.5 -0.7,-1.7 -1.4,-3.5 -2.1,-5.2 0,-0.1 -0.1,-0.3 -0.2,-0.4 -0.9,-2.2 -1.8,-4.4 -2.7,-6.7 -0.9,-2.3 -1.9,-4.6 -2.8,-6.9 -0.7,-1.6 -1.3,-3.2 -2,-4.8 0,-0.1 -0.1,-0.3 -0.2,-0.4 0,-0.1 -0.1,-0.3 -0.2,-0.4 -1.4,-3.3 -2.7,-6.7 -4.1,-10 -0.2,-0.4 -0.3,-0.4 -0.3,-0.4 z"
   style="fill:#ffffff;stroke:none;stroke-width:0;stroke-dasharray:none;stroke-opacity:1" />
			<path
   id="path14"
   class="st2"
   d="m 152.1,73.7 c 0.8,0.1 1.4,0.1 2.2,0 1.2,0 2.1,0 3,0.7 1.2,1.6 1.8,3.7 2.4,5.6 0.6,1.6 1.2,3.2 1.9,4.7 0.3,0.8 0.7,1.5 1,2.3 0.1,0.3 0.3,0.6 0.4,0.9 0.1,0.2 0.1,0.2 0.2,0.5 0.1,0.2 0.1,0.2 0.2,0.5 0.5,1.2 1,2.5 1.6,3.7 0.1,0.2 0.1,0.2 0.2,0.5 1,2.4 2,4.8 3,7.3 0.9,2.1 1.8,4.2 2.7,6.3 1,2.3 1.9,4.5 2.8,6.8 1,2.4 2,4.8 3.1,7.3 0.1,0.2 0.1,0.2 0.2,0.5 0.3,0.8 0.7,1.5 1,2.3 0.6,1.4 1.2,2.8 1.8,4.2 0.3,0.8 0.6,1.5 1,2.3 0.1,0.3 0.3,0.6 0.4,0.9 0.1,0.2 0.1,0.3 0.2,0.5 0.6,1.4 0.6,1.4 0.8,1.8 0.1,0.3 0.3,0.6 0.4,0.9 0.3,0.8 0.7,1.5 1,2.3 0.6,1.4 1.2,2.8 1.8,4.2 0.3,0.8 0.7,1.5 1,2.3 0.1,0.1 0.1,0.3 0.2,0.5 1,2.4 2,4.8 3,7.3 0.9,2.2 1.9,4.5 2.8,6.7 1,2.3 1.9,4.6 2.9,6.9 0.9,2.1 1.8,4.3 2.7,6.4 1,2.3 1.9,4.5 2.8,6.8 1,2.4 2,4.8 3.1,7.3 0.1,0.2 0.1,0.3 0.2,0.5 0.3,0.8 0.7,1.5 1,2.3 0.6,1.4 1.2,2.8 1.8,4.2 0.3,0.8 0.6,1.5 1,2.3 0.1,0.3 0.3,0.6 0.4,0.9 0.1,0.2 0.1,0.3 0.2,0.5 0.3,0.7 0.3,0.7 0.6,1.4 0.1,0.1 0.1,0.3 0.2,0.5 0.1,0.3 0.3,0.6 0.4,0.9 0.3,0.8 0.6,1.5 1,2.3 0.6,1.4 1.2,2.8 1.8,4.2 0.3,0.6 0.5,1.3 0.8,1.9 0.2,0.5 0.4,0.9 0.6,1.4 0.6,1.4 1.2,2.9 1.8,4.3 0.1,0.2 0.2,0.5 0.3,0.8 0.2,0.5 0.4,1 0.6,1.4 0.1,0.2 0.2,0.4 0.3,0.6 0.1,0.2 0.1,0.4 0.2,0.5 0.2,0.4 0.2,0.4 0.2,0.8 -19.1,0 -38.2,0 -57.8,0 -0.4,-0.9 -0.8,-1.7 -1.2,-2.5 0,-0.1 -0.1,-0.2 -0.1,-0.4 -0.1,-0.2 -0.2,-0.5 -0.3,-0.8 -0.3,-0.7 -0.6,-1.5 -0.9,-2.2 -0.1,-0.2 -0.1,-0.3 -0.2,-0.5 -0.9,-2.3 -1.8,-4.6 -2.7,-6.9 -0.2,-0.6 -0.5,-1.2 -0.7,-1.8 -0.1,-0.2 -0.2,-0.5 -0.3,-0.7 0,-0.1 -0.1,-0.2 -0.1,-0.4 -0.1,-0.2 -0.2,-0.5 -0.3,-0.7 -0.9,-2.3 -1.8,-4.6 -2.7,-6.9 -0.1,-0.3 -0.2,-0.5 -0.3,-0.8 -0.1,-0.2 -0.1,-0.2 -0.2,-0.4 -0.5,-1.2 -0.9,-2.3 -1.4,-3.5 -0.1,-0.4 -0.3,-0.7 -0.4,-1.1 -0.2,-0.5 -0.4,-1.1 -0.6,-1.6 -0.2,-0.5 -0.4,-1 -0.6,-1.5 0,-0.1 -0.1,-0.3 -0.2,-0.4 0,-0.1 -0.1,-0.3 -0.2,-0.4 0,-0.1 -0.1,-0.2 -0.1,-0.3 -0.1,-0.3 -0.2,-0.5 -0.3,-0.8 -18.3,-0.1 -18.3,-0.1 -37.1,-0.2 0,-13.8 0,-27.5 0,-41.7 7,0 14,0 21.2,0 -0.9,-2.2 -1.9,-4.5 -2.8,-6.8 -1,-2.4 -1,-2.4 -1.4,-3.6 -0.3,-0.7 -0.5,-1.3 -0.8,-2 -0.1,-0.3 -0.3,-0.7 -0.4,-1 -0.7,-1.7 -1.4,-3.5 -2.1,-5.2 -0.1,-0.3 -0.2,-0.6 -0.4,-0.9 -0.2,-0.4 -0.4,-0.9 -0.5,-1.3 -0.4,-1.1 -0.9,-2.1 -1.3,-3.2 -1.2,-3 -2.5,-6 -3.7,-9 -1,-2.5 -2,-4.9 -3,-7.4 -0.6,-1.5 -1.2,-3 -1.8,-4.5 -0.1,-0.3 -0.2,-0.6 -0.4,-0.9 -0.2,-0.5 -0.4,-1.1 -0.7,-1.6 -0.2,-0.6 -0.5,-1.2 -0.7,-1.8 -0.1,-0.3 -0.3,-0.7 -0.4,-1 -0.7,-1.6 -0.8,-3.1 -0.8,-4.8 0,-0.3 0,-0.5 0,-0.8 0,-0.6 0,-1.2 0,-1.8 0.2,-0.1 0.2,-0.1 0.5,-0.2 0,-0.1 0.1,-0.2 0.2,-0.3 0.3,-0.2 0.3,-0.2 0.8,-0.3 0.2,-0.1 0.3,-0.1 0.5,-0.2 0.2,-0.1 0.3,-0.1 0.5,-0.2 0.4,-0.1 0.7,-0.3 1.1,-0.4 0.2,-0.1 0.4,-0.1 0.5,-0.2 0.6,-0.2 1.2,-0.5 1.7,-0.7 1.9,-0.8 3.9,-1.6 5.9,-2.3 0.2,-0.1 0.2,-0.1 0.5,-0.2 5,-1.8 10.1,-2.9 15.4,-3.6 0.2,0 0.2,0 0.3,0 4.9,-0.8 10.4,-0.9 15.6,-0.2 z"
   style="fill:#ffffff;stroke:none;stroke-width:0;stroke-dasharray:none;stroke-opacity:1" />
			<path
   id="path16"
   class="st3"
   d="m 110,0.4 c 0.3,0.1 0.6,0.2 0.8,0.3 0.3,0.1 0.6,0.2 0.9,0.3 0.2,0 0.3,0.1 0.5,0.2 0.5,0.2 1,0.4 1.6,0.5 0.2,0 0.4,0.1 0.6,0.2 2.6,0.9 5.3,1.8 7.9,2.7 2.3,0.8 4.6,1.6 7,2.4 2.6,0.9 5.2,1.8 7.8,2.7 2.3,0.8 4.7,1.6 7,2.4 2.6,0.9 5.3,1.8 7.9,2.7 2.2,0.8 4.5,1.5 6.7,2.3 2.4,0.8 4.8,1.6 7.1,2.5 2.5,0.9 5,1.7 7.4,2.6 2.6,0.9 5.3,1.8 7.9,2.7 2.2,0.8 4.5,1.5 6.7,2.3 2.6,0.9 5.1,1.7 7.7,2.7 3.1,1.1 6.2,2.1 9.3,3.2 0,0.2 0,0.3 0,0.5 -0.1,0 -0.2,0.1 -0.3,0.1 -1,0.4 -2.1,0.7 -3.1,1.1 -0.5,0.2 -1.1,0.4 -1.6,0.6 -0.6,0.2 -1.2,0.4 -1.8,0.6 -0.2,0 -0.4,0.1 -0.6,0.2 -1,0.4 -2,0.7 -3,1.1 -0.4,0.1 -0.4,0.1 -0.9,0.1 0,17.6 0,35.2 0,53.4 -1.8,0 -3.7,0 -5.6,0 0,-16.9 -0.1,-33.8 -0.2,-51.2 -7.2,2.5 -7.2,2.5 -14.5,5 -2.1,0.7 -4.1,1.4 -6.2,2.2 -1.8,0.6 -3.7,1.3 -5.5,1.9 -0.2,0 -0.3,0.1 -0.5,0.2 -0.7,0.3 -1.5,0.5 -2.2,0.8 -0.3,0.1 -0.5,0.2 -0.8,0.3 -0.1,0 -0.2,0.1 -0.3,0.1 -0.8,0.3 -0.8,0.3 -1.2,0.3 0,0.2 0.1,0.3 0.1,0.5 0.5,1.9 1,3.8 1.5,5.6 0,0.2 0,0.2 0.1,0.4 0.2,0.8 0.4,1.5 0.6,2.3 0.2,0.8 0.4,1.6 0.6,2.4 0.1,0.6 0.3,1.2 0.4,1.8 0.1,0.3 0.1,0.6 0.2,0.9 0.1,0.4 0.2,0.8 0.3,1.2 0,0.1 0,0.2 0.1,0.4 0.1,0.6 0.2,1 0,1.6 -0.1,0 -0.3,0 -0.4,-0.1 -15.4,-3.1 -30.7,-1.4 -45.8,4.2 -0.1,0 -0.2,0.1 -0.4,0.1 -1.1,0.4 -2.2,0.8 -3.2,1.3 -0.1,0 -0.2,0.1 -0.4,0.2 -0.2,0.1 -0.4,0.2 -0.7,0.3 -0.6,0.3 -1,0.4 -1.7,0.2 -0.3,-0.1 -0.7,-0.3 -1,-0.4 -0.3,-0.1 -0.3,-0.1 -0.6,-0.2 -0.1,0 -0.2,-0.1 -0.3,-0.1 -2.2,-0.9 -4.4,-1.8 -6.6,-2.5 -0.4,-0.1 -0.8,-0.3 -1.2,-0.4 -6.5,-2.3 -13.5,-3.7 -20.4,-4.2 -0.1,0 -0.2,0 -0.4,0 -5.1,-0.4 -10.2,-0.1 -15.2,0.6 -0.1,0 -0.2,0 -0.3,0.1 -1.4,0.2 -2.9,0.5 -4.3,0.8 -0.5,0.1 -0.9,0.1 -1.4,0.1 0.3,-1.8 0.7,-3.5 1.2,-5.2 0.1,-0.3 0.2,-0.7 0.2,-1 0.2,-0.7 0.4,-1.4 0.5,-2.1 0.2,-0.9 0.5,-1.8 0.7,-2.6 0.2,-0.7 0.3,-1.4 0.5,-2 0.1,-0.3 0.2,-0.7 0.2,-1 0.1,-0.4 0.2,-0.9 0.3,-1.4 0,-0.1 0.1,-0.3 0.1,-0.4 0.2,-0.9 0.2,-0.9 0.4,-1.3 -0.1,0 -0.2,0 -0.3,-0.1 -1.1,-0.3 -2.2,-0.6 -3.2,-1 -0.2,0 -0.3,-0.1 -0.5,-0.2 C 55.7,49 55.1,48.8 54.6,48.6 54.2,48.5 53.8,48.3 53.4,48.2 52.6,47.9 51.8,47.7 51,47.4 49.4,46.8 47.7,46.3 46.1,45.7 45.2,45.4 44.3,45.1 43.4,44.8 43,44.7 42.7,44.6 42.3,44.4 41.6,44.2 40.9,43.9 40.2,43.7 39.9,43.6 39.9,43.6 39.7,43.5 39.4,43.4 39,43.3 38.6,43.1 37.7,42.8 36.8,42.5 35.9,42.2 34.3,41.7 32.7,41.1 31.1,40.6 30.2,40.3 29.3,40 28.4,39.7 c -0.2,-0.1 -0.3,-0.1 -0.5,-0.2 -2.1,-0.7 -4.2,-1.4 -6.2,-2.2 -0.3,-0.1 -0.3,-0.1 -0.6,-0.2 -1,-0.3 -2,-0.7 -2.9,-1 -2.1,-0.7 -4.2,-1.5 -6.4,-2.2 0,-0.2 0,-0.3 0,-0.5 0.1,0 0.2,-0.1 0.3,-0.1 4.3,-1.5 8.7,-2.9 13,-4.4 2.3,-0.8 4.6,-1.6 6.9,-2.4 2.5,-0.8 4.9,-1.7 7.4,-2.6 2.5,-0.9 4.9,-1.7 7.4,-2.6 2.6,-0.9 5.3,-1.8 7.9,-2.7 2.4,-0.8 4.8,-1.6 7.2,-2.5 2.2,-0.8 4.4,-1.5 6.7,-2.3 2.6,-0.9 5.3,-1.8 7.9,-2.7 2.3,-0.8 4.6,-1.6 6.9,-2.4 2.5,-0.9 4.9,-1.7 7.4,-2.6 2.4,-0.8 4.7,-1.6 7.1,-2.4 0.4,-0.2 0.9,-0.3 1.3,-0.5 1.3,-0.5 2.6,-0.9 3.9,-1.4 0.6,-0.2 1.2,-0.4 1.7,-0.6 0.3,-0.1 0.5,-0.2 0.8,-0.3 0.4,-0.1 0.7,-0.3 1.1,-0.4 0.1,0 0.2,-0.1 0.3,-0.1 1.4,-0.6 2.1,-0.4 3,0 z"
   style="fill:#ffffff;stroke:none;stroke-width:0;stroke-dasharray:none;stroke-opacity:1" />
		</g>
	</g>
</g>



<rect
   id="rect4169"
   y="-1"
   class="st0"
   width="650.5"
   height="217.7"
   x="0" />
<g
   class="st5"
   id="g36"
   style="fill:#ccffaa;stroke:#000000;stroke-width:11.225;stroke-dasharray:none;stroke-dashoffset:0;stroke-opacity:1"
   transform="matrix(1.1540323,0,0,1.1540323,-78.243269,-26.32539)">
	
	
	
	
	
	
	
	
<path
   style="font-size:56px;font-family:'Source Han Sans SC VF';-inkscape-font-specification:'Source Han Sans SC VF, @wght=900';font-variation-settings:'wght' 900;text-align:center;text-anchor:middle;fill:#ccffaa;stroke:#000000;stroke-width:11.225;stroke-linecap:round;stroke-linejoin:round;stroke-dasharray:none;stroke-dashoffset:0;stroke-opacity:1;paint-order:markers stroke fill"
   d="m 283.99806,200.95655 v -41.72 h 10.024 v 33.32 h 16.24 v 8.4 z m 32.70398,0 v -31.864 h 9.968 v 31.864 z m 4.984,-36.288 q -2.52,0 -4.032,-1.4 -1.512,-1.4 -1.512,-3.752 0,-2.296 1.512,-3.696 1.512,-1.4 4.032,-1.4 2.464,0 3.976,1.4 1.568,1.4 1.568,3.696 0,2.352 -1.568,3.752 -1.512,1.4 -3.976,1.4 z m 25.53595,37.072 q -3.976,0 -6.496,-1.568 -2.464,-1.624 -3.64,-4.424 -1.12,-2.856 -1.12,-6.608 v -12.264 h -4.312 v -7.392 l 4.928,-0.392 1.12,-8.456 h 8.232 v 8.456 h 7.504 v 7.784 h -7.504 v 12.152 q 0,2.632 1.12,3.808 1.176,1.12 2.912,1.12 0.784,0 1.568,-0.168 0.784,-0.224 1.344,-0.448 l 1.568,7.224 q -1.232,0.392 -3.024,0.784 -1.736,0.392 -4.2,0.392 z m 25.20002,0 q -4.592,0 -8.288,-1.96 -3.64,-2.016 -5.824,-5.768 -2.128,-3.752 -2.128,-9.016 0,-3.864 1.232,-6.944 1.288,-3.08 3.416,-5.264 2.184,-2.184 4.872,-3.304 2.744,-1.176 5.6,-1.176 4.592,0 7.616,2.016 3.024,2.016 4.536,5.488 1.512,3.472 1.512,7.84 0,1.344 -0.168,2.52 -0.112,1.176 -0.28,1.792 h -18.704 q 0.448,2.184 1.568,3.528 1.12,1.344 2.744,2.016 1.624,0.616 3.64,0.616 1.736,0 3.36,-0.504 1.624,-0.504 3.36,-1.512 l 3.304,5.992 q -2.464,1.736 -5.544,2.688 -3.024,0.952 -5.824,0.952 z m -6.776,-20.328 h 10.864 q 0,-2.352 -1.176,-3.92 -1.12,-1.568 -3.864,-1.568 -1.344,0 -2.576,0.616 -1.176,0.56 -2.072,1.792 -0.84,1.176 -1.176,3.08 z m 39.31205,19.544 v -41.72 h 26.432 v 8.344 h -16.408 v 7.728 h 13.944 v 8.4 h -13.944 v 8.848 h 17.024 v 8.4 z m 44.856,0.784 q -3.976,0 -6.944,-2.016 -2.912,-2.016 -4.536,-5.768 -1.568,-3.752 -1.568,-8.96 0,-5.208 1.904,-8.904 1.904,-3.752 4.928,-5.768 3.024,-2.016 6.328,-2.016 2.632,0 4.368,0.896 1.736,0.896 3.304,2.408 l -0.336,-4.76 v -10.64 h 9.968 v 44.744 h -8.12 l -0.728,-3.08 h -0.224 q -1.68,1.68 -3.864,2.8 -2.184,1.064 -4.48,1.064 z m 2.632,-8.176 q 1.456,0 2.576,-0.56 1.176,-0.56 2.24,-2.128 v -12.544 q -1.12,-1.064 -2.408,-1.456 -1.288,-0.448 -2.576,-0.448 -1.344,0 -2.576,0.896 -1.176,0.896 -1.96,2.744 -0.728,1.848 -0.728,4.816 0,3.024 0.616,4.984 0.672,1.904 1.904,2.8 1.232,0.896 2.912,0.896 z m 22.79205,7.392 v -31.864 h 9.968 v 31.864 z m 4.984,-36.288 q -2.52,0 -4.032,-1.4 -1.512,-1.4 -1.512,-3.752 0,-2.296 1.512,-3.696 1.512,-1.4 4.032,-1.4 2.464,0 3.976,1.4 1.568,1.4 1.568,3.696 0,2.352 -1.568,3.752 -1.512,1.4 -3.976,1.4 z m 25.53595,37.072 q -3.976,0 -6.496,-1.568 -2.464,-1.624 -3.64,-4.424 -1.12,-2.856 -1.12,-6.608 v -12.264 h -4.312 v -7.392 l 4.928,-0.392 1.12,-8.456 h 8.232 v 8.456 h 7.504 v 7.784 h -7.504 v 12.152 q 0,2.632 1.12,3.808 1.176,1.12 2.912,1.12 0.784,0 1.568,-0.168 0.784,-0.224 1.344,-0.448 l 1.568,7.224 q -1.232,0.392 -3.024,0.784 -1.736,0.392 -4.2,0.392 z m 12.37599,-0.784 v -31.864 h 9.968 v 31.864 z m 4.984,-36.288 q -2.52,0 -4.032,-1.4 -1.512,-1.4 -1.512,-3.752 0,-2.296 1.512,-3.696 1.512,-1.4 4.032,-1.4 2.464,0 3.976,1.4 1.568,1.4 1.568,3.696 0,2.352 -1.568,3.752 -1.512,1.4 -3.976,1.4 z m 26.82395,37.072 q -4.032,0 -7.616,-1.96 -3.584,-2.016 -5.824,-5.768 -2.184,-3.752 -2.184,-9.016 0,-5.264 2.184,-8.96 2.24,-3.752 5.824,-5.712 3.584,-2.016 7.616,-2.016 3.024,0 5.824,1.12 2.8,1.12 4.984,3.304 2.184,2.128 3.472,5.208 1.288,3.08 1.288,7.056 0,5.264 -2.24,9.016 -2.184,3.752 -5.768,5.768 -3.528,1.96 -7.56,1.96 z m 0,-8.064 q 1.848,0 3.024,-1.064 1.232,-1.064 1.792,-3.024 0.56,-1.96 0.56,-4.592 0,-2.632 -0.56,-4.536 -0.56,-1.96 -1.792,-3.024 -1.176,-1.064 -3.024,-1.064 -1.848,0 -3.08,1.064 -1.176,1.064 -1.792,3.024 -0.56,1.904 -0.56,4.536 0,2.632 0.56,4.592 0.616,1.96 1.792,3.024 1.232,1.064 3.08,1.064 z m 21.83994,7.28 v -31.864 h 8.12 l 0.728,3.976 h 0.168 q 1.96,-1.96 4.424,-3.36 2.52,-1.4 5.768,-1.4 5.208,0 7.56,3.472 2.352,3.472 2.352,9.464 v 19.712 h -9.968 v -18.48 q 0,-3.304 -0.896,-4.48 -0.896,-1.176 -2.8,-1.176 -1.68,0 -2.856,0.728 -1.176,0.728 -2.632,2.128 v 21.28 z"
   id="text1"
   aria-label="Lite Edition" /></g><path
   style="font-size:102.037px;font-family:'Source Han Sans SC VF';-inkscape-font-specification:'Source Han Sans SC VF, @wght=900';font-variation-settings:'wght' 900;text-align:center;text-anchor:middle;fill:#f2f2f2;stroke:#000000;stroke-width:25.082;stroke-linecap:round;stroke-linejoin:round;stroke-dasharray:none;paint-order:markers stroke fill"
   d="m 233.99801,52.884533 h 90.09868 v 12.652588 h -90.09868 z m -1.02037,-21.937956 h 91.93534 v 12.754626 h -91.93534 z m 20.61148,-5.612035 h 14.69333 v 23.468511 h -14.69333 z m 17.24425,60.60998 h 14.8974 v 34.896658 h -14.8974 z m 18.67277,-60.60998 h 14.79537 v 23.876659 h -14.79537 z m 4.48963,60.507943 h 14.28518 v 19.591105 q 0,2.24481 0.30611,2.755 0.40815,0.51018 1.53056,0.51018 0.30611,0 0.91833,0 0.61222,0 1.22444,0 0.71426,0 1.02037,0 0.8163,0 1.22445,-0.61222 0.40815,-0.71426 0.71426,-2.65296 0.30611,-1.9387 0.40815,-5.81611 2.04074,1.63259 5.71407,3.06111 3.67333,1.42852 6.42833,2.14278 -0.61222,6.32629 -2.14278,9.79555 -1.42852,3.57129 -4.08148,4.99981 -2.55092,1.42852 -6.6324,1.42852 -0.8163,0 -1.83667,0 -0.91833,0 -1.9387,0 -1.02037,0 -1.93871,0 -0.91833,0 -1.73462,0 -5.51,0 -8.46908,-1.53055 -2.85703,-1.42852 -3.97944,-4.79574 -1.02037,-3.36722 -1.02037,-9.18333 z M 247.4669,85.434337 h 15.10147 v 8.060923 q 0,3.163147 -0.81629,7.14259 -0.8163,3.97944 -3.16315,8.06092 -2.34685,3.97945 -6.83648,7.65278 -4.48963,3.67333 -11.73425,6.32629 -1.02037,-1.42852 -2.95908,-3.36722 -1.83666,-1.9387 -3.97944,-3.8774 -2.04074,-1.83667 -3.67333,-2.95908 6.02018,-1.9387 9.59148,-4.38759 3.57129,-2.55092 5.40796,-5.20389 1.83666,-2.75499 2.44889,-5.30592 0.61222,-2.652962 0.61222,-4.591665 z m 22.75425,-38.161839 13.97907,-3.265184 q 1.42852,2.754999 2.755,6.12222 1.32648,3.265184 1.9387,5.816109 l -14.79536,3.673332 q -0.40815,-2.448888 -1.53056,-5.918146 -1.12241,-3.571295 -2.34685,-6.428331 z m -25.9174,9.081293 h 15.30555 v 14.489254 h 58.36517 V 83.29156 H 244.30375 Z M 348.89168,29.211948 h 78.56849 v 13.366848 h -78.56849 z m -8.77518,0 h 14.59129 v 30.100916 q 0,6.530368 -0.40815,14.489255 -0.30611,7.856849 -1.42852,16.223883 -1.02037,8.264997 -3.06111,16.019808 -2.04074,7.65278 -5.40796,13.87703 -1.42852,-1.1224 -3.87741,-2.55092 -2.34685,-1.42852 -4.89777,-2.755 -2.44889,-1.32648 -4.28556,-1.9387 3.06111,-5.71408 4.79574,-12.44852 1.83667,-6.836477 2.65297,-13.979067 0.81629,-7.244627 1.02037,-14.081107 0.30611,-6.938516 0.30611,-12.856662 z m 34.4885,44.794245 v 4.999813 h 31.12129 v -4.999813 z m 0,-14.99944 v 4.897776 h 31.12129 V 59.006753 Z M 360.11575,48.088794 h 60.91609 v 41.835171 h -60.91609 z m 23.06036,33.570174 h 14.38722 v 26.631662 q 0,4.6937 -1.12241,7.55073 -1.02037,2.85704 -4.28555,4.28556 -3.16315,1.53055 -7.34667,1.83666 -4.18351,0.30611 -9.28536,0.30611 -0.40815,-2.95907 -1.6326,-6.6324 -1.1224,-3.67333 -2.34685,-6.42833 2.65297,0.10204 5.71408,0.10204 3.06111,0 4.08148,0 1.1224,0 1.42851,-0.30612 0.40815,-0.30611 0.40815,-1.1224 z m -3.16315,-39.590357 17.95852,2.04074 q -2.55093,3.775369 -5.10185,6.836479 -2.55093,3.06111 -4.59167,5.203887 l -13.87703,-2.652962 q 1.63259,-2.652962 3.16315,-5.714072 1.53055,-3.163147 2.44888,-5.714072 z m 20.30537,55.610166 11.83629,-6.224257 q 2.55093,3.06111 5.71407,6.836479 3.16315,3.775371 6.12222,7.448701 3.06111,3.5713 4.99982,6.32629 l -12.75463,7.24463 q -1.63259,-2.85703 -4.38759,-6.6324 -2.755,-3.67334 -5.81611,-7.65278 -3.06111,-3.97944 -5.71407,-7.346663 z m -34.69258,-5.918146 13.97907,4.591665 q -2.34685,3.877404 -5.30593,8.060924 -2.95907,4.18352 -6.02018,7.95889 -3.06111,3.77536 -5.71407,6.53036 -1.42852,-1.22444 -3.67334,-2.755 -2.24481,-1.42851 -4.59166,-2.85703 -2.34685,-1.42852 -4.18352,-2.34685 4.18352,-3.5713 8.46907,-8.87722 4.28556,-5.305926 7.04056,-10.305739 z M 440.82702,43.599166 H 514.3957 V 58.08842 h -73.56868 z m 67.75257,0 h 3.36722 l 2.85703,-0.714259 11.42815,7.448701 q -5.51,8.264997 -12.65259,16.529994 -7.14259,8.162961 -15.40759,15.815736 -8.16296,7.550738 -16.8361,14.183143 -8.67315,6.632409 -17.34629,11.836289 -1.73463,-2.44888 -4.79574,-5.50999 -2.95907,-3.16315 -5.61204,-5.203892 8.16296,-4.591665 16.32592,-10.713885 8.265,-6.224257 15.7137,-13.162773 7.4487,-7.040554 13.36685,-13.97907 5.91815,-7.040553 9.59148,-13.162773 z M 470.8259,30.946577 484.19274,23.70195 q 1.93871,2.448888 4.18352,5.509998 2.24482,2.959073 4.28556,5.918147 2.14277,2.857036 3.36722,5.10185 l -14.28518,8.16296 q -1.02037,-2.346851 -2.95908,-5.305924 -1.83666,-3.06111 -3.97944,-6.224257 -2.14278,-3.265184 -3.97944,-5.918147 z m -12.65259,64.283312 q 2.55092,0 4.99981,1.938703 2.55093,1.938703 6.73444,4.489628 4.89778,3.16315 11.53018,4.08148 6.73445,0.91833 15.10148,0.91833 4.79574,0 11.12203,-0.30611 6.42834,-0.30611 12.75463,-0.91833 6.42833,-0.61222 11.32611,-1.42852 -0.71426,1.9387 -1.73463,4.89778 -0.91833,2.95907 -1.63259,5.81611 -0.71426,2.95907 -0.8163,4.99981 -2.65296,0.20407 -6.53037,0.40815 -3.77537,0.20407 -8.16296,0.30611 -4.28555,0.20407 -8.67314,0.30611 -4.38759,0.10204 -8.265,0.10204 -9.59148,0 -16.01981,-1.32648 -6.42833,-1.22445 -11.83629,-4.28556 -3.46926,-2.04074 -6.02019,-4.08148 -2.55092,-2.04074 -4.28555,-2.04074 -1.53055,0 -3.46926,2.14278 -1.9387,2.04074 -3.97944,5.20389 -2.04074,3.16314 -3.97944,6.32629 l -10.61185,-13.97907 q 5.71407,-6.12222 11.83629,-9.795552 6.12222,-3.775369 10.61185,-3.775369 z m 100.71054,2.244814 11.83629,-7.856849 q 3.36722,1.428518 7.4487,3.469258 4.18352,1.938703 8.06092,3.979443 3.97944,2.04074 6.63241,3.877405 l -12.75463,8.67315 q -2.24481,-1.73463 -5.91814,-3.87741 -3.67334,-2.24481 -7.75482,-4.38759 -3.97944,-2.244815 -7.55073,-3.877407 z m 15.71369,-21.937955 h 38.16184 v 12.040366 h -50.2022 z M 538.78256,33.59954 h 44.59017 v 12.346477 h -44.59017 z m 16.32592,-8.264998 h 13.36684 v 45.508503 h -13.36684 z m 30.71313,8.264998 h 46.01869 v 12.346477 h -46.01869 z m 14.69333,-8.264998 h 13.67296 v 45.508503 h -13.67296 z m 15.50963,15.305551 q 2.14277,3.367221 5.20388,6.836479 3.16315,3.367221 6.83648,6.326294 3.67333,2.857036 7.24463,4.897776 -2.24481,1.836666 -5.10185,4.999813 -2.755,3.06111 -4.38759,5.612035 -3.67333,-2.857036 -7.34667,-6.938516 -3.57129,-4.08148 -6.73444,-8.775182 -3.06111,-4.693702 -5.30592,-9.285367 z m -47.65128,4.591665 q 1.1224,0.510185 3.26518,1.734629 2.14278,1.122407 4.48963,2.550925 2.44889,1.326481 4.38759,2.550925 2.04074,1.122407 2.85704,1.632592 l -7.14259,12.24444 q -1.22445,-1.530555 -3.06111,-3.367221 -1.73463,-1.938703 -3.77537,-3.979443 -2.04074,-2.04074 -3.97945,-3.775369 -1.83666,-1.836666 -3.26518,-3.06111 z m -13.57093,-5.305924 9.28537,3.469258 q -2.14277,4.897776 -5.30592,9.897589 -3.16315,4.897776 -6.73444,9.285367 -3.5713,4.285554 -7.24463,7.346664 -1.63259,-2.346851 -4.38759,-5.407961 -2.65296,-3.06111 -4.89778,-4.795739 3.5713,-2.244814 7.24463,-5.407961 3.67333,-3.265184 6.83648,-6.938516 3.16314,-3.775369 5.20388,-7.448701 z m 46.42684,0 9.48944,3.571295 q -2.34685,4.795739 -5.71407,9.693515 -3.26518,4.795739 -7.14259,8.877219 -3.77537,4.08148 -7.85685,6.938516 -1.63259,-2.346851 -4.38759,-5.509998 -2.755,-3.163147 -4.99981,-4.999813 3.97944,-2.04074 7.85685,-4.999813 3.8774,-3.06111 7.24462,-6.530368 3.36722,-3.571295 5.51,-7.040553 z m -25.1011,26.121472 14.8974,5.816109 q -4.99981,5.101851 -11.32611,9.795553 -6.32629,4.693702 -13.36684,8.673145 -7.04056,3.877406 -13.97907,6.632405 -1.42852,-1.632592 -3.46926,-3.469258 -2.04074,-1.938703 -4.18352,-3.775369 -2.14278,-1.836666 -3.8774,-2.959073 7.04055,-2.346851 13.87703,-5.714072 6.83648,-3.367221 12.44851,-7.244627 5.61204,-3.877407 8.97926,-7.754813 z m 31.52943,9.489442 h 3.06111 l 2.55093,-0.510185 10.2037,6.734442 q -5.20389,9.081293 -13.06074,15.917772 -7.85685,6.734443 -17.75444,11.530183 -9.89759,4.79574 -21.22369,7.85685 -11.32611,3.06111 -23.36648,4.79574 -0.61222,-1.93871 -1.9387,-4.59167 -1.22444,-2.65296 -2.755,-5.10185 -1.53055,-2.55092 -2.95907,-4.18352 11.63222,-1.1224 22.14203,-3.36722 10.61185,-2.24481 19.48906,-5.816106 8.87722,-3.673332 15.40759,-8.775182 6.63241,-5.203887 10.2037,-12.142403 z"
   id="text2"
   aria-label="荒原之梦" />
</svg>
